<svg width="14" height="14" viewBox="0 0 14 14" fill="none" xmlns="http://www.w3.org/2000/svg">
<path fill-rule="evenodd" clip-rule="evenodd" d="M6.8674 0.599976C5.12925 0.599976 4.91111 0.607576 4.22844 0.638643C3.5471 0.669843 3.08202 0.777711 2.67509 0.935979C2.25415 1.09945 1.89708 1.31812 1.54134 1.67399C1.18534 2.02972 0.966669 2.38679 0.802667 2.8076C0.643999 3.21467 0.535998 3.67987 0.505331 4.36095C0.474797 5.04362 0.466797 5.26189 0.466797 7.00004C0.466797 8.73819 0.47453 8.95566 0.505464 9.63834C0.536798 10.3197 0.644665 10.7847 0.8028 11.1917C0.966402 11.6126 1.18507 11.9697 1.54094 12.3254C1.89655 12.6814 2.25362 12.9006 2.67429 13.0641C3.08149 13.2224 3.5467 13.3302 4.2279 13.3614C4.91058 13.3925 5.12858 13.4001 6.8666 13.4001C8.60488 13.4001 8.82235 13.3925 9.50502 13.3614C10.1864 13.3302 10.652 13.2224 11.0592 13.0641C11.48 12.9006 11.8365 12.6814 12.1921 12.3254C12.5481 11.9697 12.7668 11.6126 12.9308 11.1918C13.0881 10.7847 13.1961 10.3195 13.2281 9.63847C13.2588 8.9558 13.2668 8.73819 13.2668 7.00004C13.2668 5.26189 13.2588 5.04375 13.2281 4.36108C13.1961 3.67974 13.0881 3.21467 12.9308 2.80773C12.7668 2.38679 12.5481 2.02972 12.1921 1.67399C11.8361 1.31798 11.4801 1.09931 11.0588 0.935979C10.6508 0.777711 10.1854 0.669843 9.50409 0.638643C8.82142 0.607576 8.60408 0.599976 6.8654 0.599976H6.8674ZM6.29323 1.7533C6.46363 1.75304 6.65377 1.7533 6.86737 1.7533C8.57619 1.7533 8.77872 1.75944 9.45353 1.7901C10.0775 1.81864 10.4162 1.9229 10.6418 2.01051C10.9405 2.12651 11.1534 2.26517 11.3773 2.48918C11.6013 2.71318 11.74 2.92652 11.8562 3.22518C11.9438 3.45052 12.0482 3.78919 12.0766 4.4132C12.1073 5.08787 12.114 5.29054 12.114 6.99856C12.114 8.70658 12.1073 8.90924 12.0766 9.58392C12.0481 10.2079 11.9438 10.5466 11.8562 10.7719C11.7402 11.0706 11.6013 11.2833 11.3773 11.5071C11.1533 11.7311 10.9406 11.8698 10.6418 11.9858C10.4165 12.0738 10.0775 12.1778 9.45353 12.2063C8.77886 12.237 8.57619 12.2437 6.86737 12.2437C5.15842 12.2437 4.95588 12.237 4.28121 12.2063C3.6572 12.1775 3.31853 12.0733 3.0928 11.9857C2.79413 11.8697 2.58079 11.731 2.35679 11.507C2.13279 11.283 1.99412 11.0702 1.87785 10.7714C1.79025 10.5461 1.68585 10.2074 1.65745 9.58339C1.62678 8.90871 1.62065 8.70604 1.62065 6.99696C1.62065 5.28787 1.62678 5.08627 1.65745 4.4116C1.68598 3.78759 1.79025 3.44892 1.87785 3.22332C1.99385 2.92465 2.13279 2.71131 2.35679 2.48731C2.58079 2.26331 2.79413 2.12464 3.0928 2.00837C3.3184 1.92037 3.6572 1.81637 4.28121 1.7877C4.87162 1.76104 5.10042 1.75304 6.29323 1.7517V1.7533ZM10.2837 2.81598C9.85967 2.81598 9.51567 3.15959 9.51567 3.58372C9.51567 4.00773 9.85967 4.35173 10.2837 4.35173C10.7077 4.35173 11.0517 4.00773 11.0517 3.58372C11.0517 3.15972 10.7077 2.81598 10.2837 2.81598ZM6.86741 3.71332C5.05232 3.71332 3.58071 5.18494 3.58071 7.00002C3.58071 8.81511 5.05232 10.2861 6.86741 10.2861C8.68249 10.2861 10.1536 8.81511 10.1536 7.00002C10.1536 5.18494 8.68249 3.71332 6.86741 3.71332ZM6.86738 4.86667C8.04553 4.86667 9.00074 5.82175 9.00074 7.00002C9.00074 8.17817 8.04553 9.13338 6.86738 9.13338C5.6891 9.13338 4.73403 8.17817 4.73403 7.00002C4.73403 5.82175 5.6891 4.86667 6.86738 4.86667Z" fill="#fff"/>
</svg>
