<svg width="14" height="10" viewBox="0 0 14 10" fill="none" xmlns="http://www.w3.org/2000/svg">
<path fill-rule="evenodd" clip-rule="evenodd" d="M11.8676 0.87464C12.4184 1.02577 12.8521 1.47108 12.9993 2.03659C13.2668 3.0615 13.2668 5.19998 13.2668 5.19998C13.2668 5.19998 13.2668 7.33838 12.9993 8.36337C12.8521 8.92887 12.4184 9.37418 11.8676 9.52538C10.8695 9.79998 6.8668 9.79998 6.8668 9.79998C6.8668 9.79998 2.86411 9.79998 1.86592 9.52538C1.31516 9.37418 0.881415 8.92887 0.734215 8.36337C0.466797 7.33838 0.466797 5.19998 0.466797 5.19998C0.466797 5.19998 0.466797 3.0615 0.734215 2.03659C0.881415 1.47108 1.31516 1.02577 1.86592 0.87464C2.86411 0.599976 6.8668 0.599976 6.8668 0.599976C6.8668 0.599976 10.8695 0.599976 11.8676 0.87464ZM5.66681 3.39993V7.39993L8.86681 5.40001L5.66681 3.39993Z" fill="white"/>
</svg>
