<svg width="19" height="14" viewBox="0 0 19 14" fill="none" xmlns="http://www.w3.org/2000/svg">
<path d="M15.803 7.34212C17.5634 5.8961 18.7046 3.83195 18.993 1.57212C19.0088 1.4408 18.9985 1.30766 18.9628 1.1803C18.9271 1.05295 18.8667 0.933868 18.785 0.829867C18.7033 0.725865 18.6019 0.638977 18.4866 0.574163C18.3713 0.509349 18.2443 0.467879 18.113 0.452121C17.9817 0.436362 17.8486 0.446624 17.7212 0.482319C17.5938 0.518015 17.4748 0.578445 17.3708 0.660161C17.2668 0.741876 17.1799 0.843277 17.1151 0.958572C17.0502 1.07387 17.0088 1.2008 16.993 1.33212C16.7539 3.01841 15.9142 4.56171 14.6281 5.6783C13.3421 6.79489 11.6962 7.4097 9.99301 7.4097C8.28987 7.4097 6.64396 6.79489 5.3579 5.6783C4.07185 4.56171 3.23209 3.01841 2.99301 1.33212C2.97726 1.2008 2.93579 1.07387 2.87097 0.958572C2.80616 0.843277 2.71927 0.741876 2.61527 0.660161C2.51127 0.578445 2.39219 0.518015 2.26483 0.482319C2.13748 0.446624 2.00434 0.436362 1.87301 0.452121C1.74169 0.467879 1.61476 0.509349 1.49947 0.574163C1.38417 0.638977 1.28277 0.725865 1.20105 0.829867C1.11934 0.933868 1.05891 1.05295 1.02321 1.1803C0.987517 1.30766 0.977256 1.4408 0.993014 1.57212C1.27885 3.83046 2.41634 5.8944 4.17301 7.34212L1.87301 9.66212C1.70919 9.85342 1.62358 10.0995 1.6333 10.3512C1.64302 10.6028 1.74736 10.8416 1.92545 11.0197C2.10355 11.1978 2.34229 11.3021 2.59396 11.3118C2.84564 11.3216 3.09171 11.2359 3.28301 11.0721L5.89301 8.47212C6.86282 8.9622 7.91287 9.27383 8.99301 9.39212V12.9521C8.99301 13.2173 9.09837 13.4717 9.28591 13.6592C9.47344 13.8468 9.7278 13.9521 9.99301 13.9521C10.2582 13.9521 10.5126 13.8468 10.7001 13.6592C10.8877 13.4717 10.993 13.2173 10.993 12.9521V9.39212C12.0732 9.27383 13.1232 8.9622 14.093 8.47212L16.703 11.0721C16.8943 11.2359 17.1404 11.3216 17.3921 11.3118C17.6437 11.3021 17.8825 11.1978 18.0606 11.0197C18.2387 10.8416 18.343 10.6028 18.3527 10.3512C18.3624 10.0995 18.2768 9.85342 18.113 9.66212L15.803 7.34212Z" fill="#858585"/>
</svg>
