<svg width="22" height="17" viewBox="0 0 22 17" fill="none" xmlns="http://www.w3.org/2000/svg">
<path d="M20.2502 7.91415C20.7242 8.53415 20.7242 9.37115 20.2502 9.99015C18.7572 11.9391 15.1752 15.9521 10.9932 15.9521C6.81118 15.9521 3.22918 11.9391 1.73618 9.99015C1.50556 9.69328 1.38037 9.32807 1.38037 8.95215C1.38037 8.57623 1.50556 8.21102 1.73618 7.91415C3.22918 5.96515 6.81118 1.95215 10.9932 1.95215C15.1752 1.95215 18.7572 5.96515 20.2502 7.91415Z" stroke="#858585" stroke-width="2" stroke-linecap="round" stroke-linejoin="round"/>
<path d="M10.9932 11.9521C12.65 11.9521 13.9932 10.609 13.9932 8.95215C13.9932 7.29529 12.65 5.95215 10.9932 5.95215C9.33632 5.95215 7.99318 7.29529 7.99318 8.95215C7.99318 10.609 9.33632 11.9521 10.9932 11.9521Z" stroke="#858585" stroke-width="2" stroke-linecap="round" stroke-linejoin="round"/>
</svg>
