<svg width="94" height="95" viewBox="0 0 94 95" fill="none" xmlns="http://www.w3.org/2000/svg">
<path fill-rule="evenodd" clip-rule="evenodd" d="M46.7078 0.551708C45.8104 0.961148 44.7816 1.92206 44.353 2.75132L44.0614 3.31572L23.6365 3.36725L3.21166 3.41897L2.25318 4.01177C1.65929 4.37909 1.06912 4.96955 0.701976 5.56353L0.109457 6.52209L0.0546307 15.4326L0 24.3431L0.431564 24.8027C1.0188 25.4281 2.13452 25.4312 2.71881 24.809C3.14196 24.3582 3.1445 24.3065 3.1445 16.1005C3.1445 10.4676 3.21362 7.6936 3.36185 7.36781C3.48149 7.1053 3.794 6.79264 4.05639 6.67294C4.39611 6.51818 10.2048 6.45549 24.2032 6.45549H43.8728V8.02272V9.58996H25.5559H7.23868L6.75816 10.0709L6.27745 10.5517V33.0985V55.6453L6.75816 56.1261L7.23868 56.607H43.8728H80.507L80.9875 56.1261L81.4682 55.6453V45.1554V34.6657H83.0347H84.6012V46.5088C84.6012 54.771 84.5354 58.4961 84.3838 58.8292C84.2642 59.0917 83.9517 59.4044 83.6893 59.5241C83.0096 59.8338 4.73604 59.8338 4.05639 59.5241C3.794 59.4044 3.48149 59.0917 3.36185 58.8292C3.21108 58.4979 3.1445 55.0941 3.1445 47.7183V37.085L2.6914 36.6589C2.06775 36.0729 0.999019 36.0882 0.432543 36.6914L0.00215384 37.1498L0.0558056 48.4122L0.109457 59.6747L0.701976 60.6335C1.06931 61.2276 1.65929 61.8177 2.25318 62.1852L3.21166 62.778H43.8728H84.534L85.4925 62.1852C86.0864 61.8177 86.6763 61.2276 87.0437 60.6335L87.6362 59.6745L87.6893 47.1907L87.7425 34.7069L89.2712 34.6373C91.1905 34.55 92.4075 33.8827 93.3096 32.423L93.9021 31.4641V17.4261V3.38821L93.3096 2.42926C92.9422 1.83488 92.3525 1.24482 91.7584 0.877301L90.7999 0.284494L69.1477 0.238456C48.5098 0.194574 47.4585 0.209267 46.7078 0.551708ZM89.9552 3.53847C90.2176 3.65817 90.5301 3.97083 90.6497 4.23334C90.9558 4.90549 90.9558 29.9468 90.6497 30.6189C90.5301 30.8814 90.2176 31.1941 89.9552 31.3138C89.6199 31.4666 85.3885 31.5313 75.7296 31.5313H61.9815L57.6754 35.2425L53.3696 38.9535L53.2717 35.6165C53.1487 31.4266 53.2268 31.5313 50.2259 31.5313C48.3694 31.5313 48.1571 31.4923 47.6531 31.0585L47.1037 30.5858L47.0506 17.6898C47.0134 8.69624 47.0622 4.6373 47.2114 4.27703C47.3291 3.99277 47.6173 3.66737 47.8519 3.55394C48.4691 3.25539 89.3014 3.2405 89.9552 3.53847ZM61.5297 8.47604C61.1062 8.92721 61.104 8.97286 61.104 17.3987V25.8679L61.5848 26.3486C61.8751 26.6393 62.291 26.8296 62.6361 26.8296C63.0381 26.8296 65.0835 25.6614 69.5473 22.8823C73.0345 20.7113 76.0858 18.7565 76.3282 18.5383C76.8663 18.0536 76.9135 17.0571 76.4261 16.467C76.2378 16.2388 73.1857 14.2456 69.6439 12.0374C62.7363 7.73102 62.3774 7.57351 61.5297 8.47604ZM68.8928 15.3691C70.6323 16.4466 72.0557 17.3723 72.0557 17.4261C72.0557 17.5069 68.0482 20.0385 64.9834 21.8941L64.237 22.3459V17.4261V12.5064L64.9834 12.9581C65.394 13.2067 67.1532 14.2917 68.8928 15.3691ZM43.9163 22.0945L43.9707 31.4645L44.5633 32.4232C45.4661 33.8839 46.6823 34.55 48.6059 34.6375L50.1387 34.7073V38.9347C50.1387 43.0056 50.1546 43.1792 50.5644 43.6158C51.061 44.1446 51.9952 44.2165 52.6259 43.7745C52.8571 43.6125 55.3588 41.4967 58.1851 39.0728L63.3239 34.6657H70.8295H78.3353V44.0692V53.4726H62.6705H47.0058V52.828C47.0058 51.8579 46.4708 49.998 45.8791 48.91C45.5895 48.3777 44.8977 47.4798 44.3418 46.9147C42.4675 45.0093 40.1965 44.0692 37.4679 44.0692H36.0405V42.1949V40.3205L36.9355 39.2213C38.5278 37.2656 39.1734 35.4591 39.1734 32.9594C39.1734 31.8018 39.2308 31.5313 39.4759 31.5313C39.6424 31.5313 39.9948 31.3148 40.2592 31.0503C40.7315 30.578 40.7399 30.512 40.7399 27.2715C40.7399 23.6438 40.5221 22.3766 39.6075 20.6813C38.4994 18.6272 36.0988 16.763 33.7857 16.1602C31.9655 15.6859 27.0577 15.7431 25.3914 16.258C22.7865 17.0629 20.3886 19.3004 19.3785 21.8685C18.9808 22.8795 18.9209 23.4281 18.851 26.6889C18.765 30.7139 18.8699 31.1957 19.8887 31.4515C20.351 31.5675 20.3757 31.6453 20.3757 32.9806C20.3757 35.4588 21.0256 37.2707 22.6136 39.2213L23.5087 40.3205V42.1949V44.0692H22.0812C19.4012 44.0692 17.1202 44.994 15.2941 46.8212C13.6986 48.4173 12.5433 50.9403 12.5433 52.828V53.4726H10.9769H9.4104V33.0985V12.7244H26.6361H43.8619L43.9163 22.0945ZM33.8866 19.6103C35.2476 20.2483 36.3502 21.3456 36.9674 22.6768C37.3424 23.4853 37.4728 24.1588 37.5552 25.7133L37.6612 27.7111L36.3782 26.4867C35.5141 25.662 34.9375 25.2623 34.6118 25.2623C34.3459 25.2623 33.0387 25.7858 31.7066 26.4256C28.6303 27.9035 27.5245 28.1934 24.4135 28.338L21.8919 28.4552L21.9765 26.1241C22.0744 23.4241 22.5116 22.1847 23.8245 20.8842C25.3859 19.3378 26.5778 18.9946 30.1662 19.0584C32.5419 19.1007 32.9187 19.1566 33.8866 19.6103ZM0.437242 28.8501C0.0781279 29.2327 0.0115528 29.5338 0.0115528 30.7751C0.0115528 32.06 0.0691205 32.3006 0.464655 32.6726C1.08576 33.2562 2.15704 33.2433 2.71881 32.6452C3.07793 32.2626 3.1445 31.9615 3.1445 30.7202C3.1445 29.4353 3.08693 29.1947 2.6914 28.8227C2.07029 28.2391 0.999019 28.252 0.437242 28.8501ZM35.9948 32.6146C35.929 34.1905 35.8143 34.7919 35.416 35.6511C33.5917 39.5869 28.4348 40.5297 25.391 37.4842C24.2854 36.3781 23.6869 34.9492 23.5613 33.1163L23.4566 31.5883L25.6855 31.4872C27.5656 31.4022 28.2514 31.2736 30.0683 30.6663C31.2529 30.2702 32.6628 29.7001 33.2012 29.3992L34.1803 28.8521L35.1286 29.7509L36.0769 30.6497L35.9948 32.6146ZM29.7746 42.404C30.69 42.404 31.7695 42.3338 32.1732 42.2482L32.9075 42.0923V43.7861C32.9075 45.4419 32.893 45.4942 32.2594 46.1281C30.9044 47.4838 28.4378 47.4736 27.239 46.1075C26.6731 45.4628 26.6416 45.3388 26.6416 43.7596V42.0923L27.3759 42.2482C27.7799 42.3338 28.8592 42.404 29.7746 42.404ZM24.3078 47.7263C24.7307 48.5221 26.3522 49.7075 27.4732 50.0405C28.0242 50.2041 29.0599 50.3381 29.7746 50.3381C30.4893 50.3381 31.5249 50.2041 32.0759 50.0405C33.2104 49.7034 34.8198 48.5193 35.2543 47.702L35.5453 47.155L37.3273 47.2483C39.4438 47.3592 40.8497 47.9116 42.0042 49.0865C42.8515 49.9484 43.5783 51.4075 43.7747 52.64L43.9073 53.4726H29.7894H15.6716L15.7934 52.64C16.0722 50.7317 17.4153 48.8046 19.0509 47.9657C20.0669 47.4446 21.0266 47.2463 22.6434 47.2232C23.9547 47.2046 24.045 47.232 24.3078 47.7263ZM11.8161 66.2835C9.7746 66.9492 7.82415 68.6906 6.90404 70.6695C6.44859 71.6488 6.37379 72.0923 6.30995 74.1963C6.22987 76.8297 6.46758 77.9926 7.3685 79.3768C7.6299 79.7784 7.84392 80.1416 7.84392 80.1838C7.84392 80.2259 7.53552 80.3103 7.15879 80.3714C5.93635 80.5699 3.93107 81.7108 2.77971 82.8629C0.66536 84.9787 0.0115528 86.84 0.0115528 90.7446C0.0115528 93.153 0.0317211 93.2792 0.492265 93.7398L0.972781 94.2207H14.1098H27.2469L27.7274 93.7398C28.1901 93.277 28.2081 93.1603 28.2081 90.6261C28.2081 87.6532 27.8809 86.2 26.8437 84.5644C25.6171 82.6302 23.4456 80.9856 21.4484 80.478C20.9122 80.3417 20.445 80.2124 20.41 80.1908C20.3749 80.1693 20.5639 79.8129 20.8298 79.399C21.7434 77.9763 21.9884 76.7944 21.913 74.1726C21.849 71.9424 21.8014 71.6936 21.211 70.4941C20.435 68.9175 18.8545 67.3655 17.2923 66.6458C15.9308 66.0187 13.1854 65.8371 11.8161 66.2835ZM44.7121 66.2835C42.6706 66.9492 40.7201 68.6906 39.8 70.6695C39.3453 71.647 39.2697 72.0935 39.2065 74.1773C39.1272 76.7842 39.3706 77.9734 40.2711 79.3768C40.529 79.7784 40.7399 80.1416 40.7399 80.1838C40.7399 80.2259 40.4315 80.3103 40.0547 80.3714C38.9349 80.5532 36.903 81.6654 35.8568 82.669C33.6224 84.8124 32.9075 86.7325 32.9075 90.5906C32.9075 92.9221 32.949 93.2412 33.3134 93.7045L33.7191 94.2207H46.931H60.1428L60.6233 93.7398C61.086 93.277 61.104 93.1603 61.104 90.6261C61.104 87.6532 60.7769 86.2 59.7396 84.5644C58.5131 82.6302 56.3416 80.9856 54.3443 80.478C53.8082 80.3417 53.341 80.2124 53.3059 80.1908C53.2709 80.1693 53.4598 79.8129 53.7258 79.399C54.6394 77.9763 54.8844 76.7944 54.809 74.1726C54.7449 71.9424 54.6974 71.6936 54.107 70.4941C53.331 68.9175 51.7504 67.3655 50.1883 66.6458C48.8268 66.0187 46.0814 65.8371 44.7121 66.2835ZM77.608 66.2835C75.5665 66.9492 73.6161 68.6906 72.696 70.6695C72.2413 71.647 72.1657 72.0935 72.1025 74.1773C72.0232 76.7842 72.2665 77.9734 73.1671 79.3768C73.4249 79.7784 73.6358 80.1416 73.6358 80.1838C73.6358 80.2259 73.3274 80.3103 72.9507 80.3714C71.8309 80.5532 69.799 81.6654 68.7527 82.669C66.5115 84.8189 65.8035 86.7291 65.8035 90.6261C65.8035 93.1603 65.8215 93.277 66.2842 93.7398L66.7647 94.2207H79.9017H93.0388L93.5193 93.7398C93.982 93.277 94 93.1603 94 90.6261C94 87.6532 93.6728 86.2 92.6356 84.5644C91.4091 82.6302 89.2375 80.9856 87.2403 80.478C86.7041 80.3417 86.2369 80.2124 86.2019 80.1908C86.1668 80.1693 86.3589 79.8129 86.6284 79.399C87.5426 77.9951 87.7815 76.8401 87.7055 74.1916C87.6407 71.9403 87.5943 71.6954 87.003 70.4941C86.227 68.9175 84.6464 67.3655 83.0842 66.6458C81.7228 66.0187 78.9773 65.8371 77.608 66.2835ZM16.2432 69.7252C17.8157 70.5347 18.6109 71.8972 18.7572 74.0333C18.9657 77.0751 17.7783 79.1333 15.4194 79.8194C13.1468 80.4804 11.0227 79.543 9.87603 77.3729C9.35518 76.3871 9.35518 72.8734 9.87603 71.8876C11.1533 69.4703 13.9215 68.5302 16.2432 69.7252ZM49.1391 69.7252C49.9817 70.1589 50.753 70.9557 51.2139 71.8688C51.7254 72.8818 51.8274 75.2852 51.4185 76.6921C50.426 80.1081 46.041 81.1938 43.6504 78.6153C42.6097 77.4928 42.4097 76.8504 42.4097 74.6303C42.4097 72.4099 42.6099 71.7671 43.6504 70.6458C44.9978 69.1937 47.3426 68.8003 49.1391 69.7252ZM82.0351 69.7252C82.8724 70.1562 83.636 70.9424 84.1355 71.8876C84.4214 72.4289 84.4978 73.0064 84.4978 74.6303C84.4978 76.8504 84.2978 77.4928 83.2571 78.6153C81.5215 80.4872 78.282 80.4872 76.5463 78.6153C75.5056 77.4928 75.3057 76.8504 75.3057 74.6303C75.3057 72.4099 75.5058 71.7671 76.5463 70.6458C77.8937 69.1937 80.2385 68.8003 82.0351 69.7252ZM21.3716 83.8613C23.614 84.9133 24.7989 86.7483 25.0107 89.4975L25.1331 91.0862H14.1108H3.0885L3.19522 89.5298C3.41021 86.3908 5.18483 84.1422 7.98765 83.4567C8.39336 83.3576 11.3244 83.2926 14.5014 83.3121L20.2778 83.348L21.3716 83.8613ZM54.2676 83.8613C56.51 84.9133 57.6948 86.7483 57.9067 89.4975L58.0291 91.0862H47.0068H35.9845L36.0912 89.5298C36.3048 86.4096 38.0974 84.1381 40.8836 83.4567C41.2893 83.3576 44.2204 83.2926 47.3974 83.3121L53.1738 83.348L54.2676 83.8613ZM87.1635 83.8613C89.4098 84.915 90.6299 86.8085 90.8163 89.5298L90.9231 91.0862H79.9017H68.8804L68.9871 89.5298C69.2008 86.4096 70.9934 84.1381 73.7796 83.4567C74.1853 83.3576 77.1163 83.2926 80.2934 83.3121L86.0697 83.348L87.1635 83.8613Z" fill="white"/>
</svg>
