<svg width="26" height="27" viewBox="0 0 26 27" fill="none" xmlns="http://www.w3.org/2000/svg">
<path d="M12.9594 1.3125C7.67817 1.3125 3.1688 4.725 1.50317 9.4375H24.4969C22.7907 4.725 18.2813 1.3125 12.9594 1.3125Z" fill="#F9F9F9"/>
<path d="M12.9594 25.6875C18.2813 25.6875 22.7907 22.275 24.4563 17.5625H1.50317C3.1688 22.3156 7.67817 25.6875 12.9594 25.6875Z" fill="#ED4C5C"/>
<path d="M1.50313 9.4375C1.05625 10.6969 0.8125 12.0781 0.8125 13.5C0.8125 14.9219 1.05625 16.3031 1.50313 17.5625H24.4969C24.9438 16.3031 25.1875 14.9219 25.1875 13.5C25.1875 12.0781 24.9438 10.6969 24.4969 9.4375H1.50313Z" fill="#428BC1"/>
</svg>
