<svg width="44" height="45" viewBox="0 0 44 45" fill="none" xmlns="http://www.w3.org/2000/svg">
<path fill-rule="evenodd" clip-rule="evenodd" d="M9.97715 0.164487C9.19945 0.531268 8.98804 1.01934 8.98804 2.44753V3.4961L7.24634 3.53486C5.73858 3.56844 5.42379 3.60034 4.90257 3.77235C2.5901 4.53571 0.922972 6.25201 0.201521 8.61196L0 9.27116V24.2571V39.243L0.201521 39.9022C0.922198 42.2596 2.55716 43.9454 4.90257 44.7493L5.50463 44.9557L12.8585 44.9829C17.9596 45.0017 20.31 44.9808 20.531 44.9147C21.9971 44.4766 22.1281 42.3105 20.7284 41.6504C20.4034 41.4971 20.0121 41.4879 13.6326 41.4855C9.43305 41.4839 6.66947 41.4487 6.32173 41.3924C4.85191 41.1544 3.72019 39.9979 3.48727 38.4959C3.36522 37.7086 3.36522 10.8055 3.48727 10.0183C3.72019 8.51624 4.85191 7.35974 6.32173 7.12172C6.62921 7.07197 7.35497 7.03093 7.93441 7.03058L8.98804 7.02987L8.98993 8.10657C8.99139 8.96485 9.02399 9.25455 9.15059 9.53485C9.75946 10.883 11.657 10.883 12.2659 9.53485C12.3925 9.25455 12.4251 8.96485 12.4265 8.10657L12.4284 7.02987H16.2989H20.1693L20.1712 8.10657C20.1727 8.96485 20.2053 9.25455 20.3319 9.53485C20.9532 10.9106 22.9041 10.8707 23.4766 9.47051C23.5717 9.23794 23.6097 8.84312 23.6097 8.08741V7.02987H27.5232H31.4366V8.08741C31.4366 9.21351 31.5291 9.60296 31.8923 10.0067C32.4927 10.6741 33.6795 10.7095 34.3496 10.08C34.7618 9.69279 34.8731 9.27486 34.8751 8.10657L34.877 7.02987L35.9736 7.03058C36.5767 7.03093 37.3219 7.07197 37.6293 7.12172C39.0992 7.35974 40.2309 8.51624 40.4638 10.0183C40.517 10.3615 40.5534 12.6599 40.5549 15.7753C40.5573 20.6282 40.5676 20.9836 40.7162 21.3126C41.3623 22.7431 43.4805 22.6093 43.9111 21.1109C43.9756 20.8862 43.996 18.9855 43.9769 14.9843L43.9492 9.18327L43.748 8.56801C42.9721 6.19471 41.3403 4.52947 39.0485 3.77218C38.5241 3.59894 38.2162 3.56826 36.6617 3.53478L34.877 3.49637L34.8751 2.42854C34.8737 1.57887 34.8408 1.28891 34.7145 1.00915C34.0931 -0.366568 32.1422 -0.326664 31.5698 1.07348C31.4746 1.30605 31.4366 1.70087 31.4366 2.45658V3.51412H27.5232H23.6097V2.45658C23.6097 1.01846 23.3998 0.531971 22.6206 0.164487C21.9745 -0.140241 21.085 0.025966 20.625 0.537332C20.2618 0.941028 20.1693 1.33049 20.1693 2.45658V3.51412H16.2989H12.4284L12.4265 2.43742C12.4245 1.26914 12.3132 0.851201 11.901 0.464029C11.4053 -0.00163266 10.5964 -0.127584 9.97715 0.164487ZM9.97715 16.8643C8.63092 17.4993 8.66997 19.4929 10.0401 20.0779C10.8962 20.4434 11.8804 20.0566 12.2659 19.2032C12.5641 18.5429 12.4014 17.6339 11.901 17.1639C11.4053 16.6982 10.5964 16.5722 9.97715 16.8643ZM17.46 16.8643C16.1138 17.4993 16.1528 19.4929 17.523 20.0779C18.379 20.4434 19.3632 20.0566 19.7487 19.2032C20.0469 18.5429 19.8843 17.6339 19.3839 17.1639C18.8882 16.6982 18.0793 16.5722 17.46 16.8643ZM24.9429 16.8643C23.5966 17.4993 23.6357 19.4929 25.0058 20.0779C25.609 20.3354 26.3888 20.1973 26.8667 19.7483C27.545 19.1111 27.545 17.801 26.8667 17.1639C26.3711 16.6982 25.5621 16.5722 24.9429 16.8643ZM32.4257 16.8643C31.0795 17.4993 31.1186 19.4929 32.4887 20.0779C33.0919 20.3354 33.8717 20.1973 34.3496 19.7483C35.0279 19.1111 35.0279 17.801 34.3496 17.1639C33.8539 16.6982 33.045 16.5722 32.4257 16.8643ZM32.0387 23.8273C29.031 24.3173 26.4182 26.07 24.7697 28.7035C22.6447 32.0982 22.6447 36.6315 24.7697 40.0262C26.7303 43.1583 29.9952 45 33.5869 45C37.1315 45 40.3337 43.2251 42.3112 40.1642C44.5284 36.7323 44.5655 32.1564 42.404 28.7035C40.7407 26.0464 38.102 24.2898 35.0755 23.8247C34.3574 23.7144 32.7233 23.7158 32.0387 23.8273ZM9.97715 24.5111C8.63092 25.146 8.66997 27.1396 10.0401 27.7246C10.8962 28.0902 11.8804 27.7034 12.2659 26.8499C12.5641 26.1897 12.4014 25.2807 11.901 24.8106C11.4053 24.345 10.5964 24.219 9.97715 24.5111ZM17.46 24.5111C16.1138 25.146 16.1528 27.1396 17.523 27.7246C18.379 28.0902 19.3632 27.7034 19.7487 26.8499C20.0469 26.1897 19.8843 25.2807 19.3839 24.8106C18.8882 24.345 18.0793 24.219 17.46 24.5111ZM35.1781 27.4783C36.0227 27.6735 37.2224 28.2717 37.9201 28.8454C39.0794 29.7989 39.9935 31.2839 40.3437 32.7828C40.5481 33.6576 40.5481 35.0721 40.3437 35.9469C39.8532 38.0464 38.4346 39.8412 36.5542 40.7416C35.5133 41.2401 34.7037 41.427 33.5869 41.427C32.47 41.427 31.6604 41.2401 30.6195 40.7416C28.7391 39.8412 27.3205 38.0464 26.83 35.9469C26.6257 35.0721 26.6257 33.6576 26.83 32.7828C27.3205 30.6833 28.7391 28.8884 30.6195 27.9881C32.12 27.2696 33.5722 27.1072 35.1781 27.4783ZM32.8558 29.1694C32.4394 29.3658 32.1773 29.6441 31.9998 30.0784C31.8919 30.3423 31.8667 30.8131 31.8667 32.563C31.8667 34.87 31.9043 35.1191 32.3224 35.5838C32.7426 36.0509 33.0615 36.1189 34.834 36.1189C36.2412 36.1189 36.516 36.0964 36.8122 35.9566C37.6474 35.5627 38.0259 34.5569 37.6682 33.6821C37.3717 32.9566 36.7998 32.6119 35.8876 32.6089L35.3071 32.607L35.3052 31.4863C35.3036 30.5853 35.2721 30.2968 35.1445 30.0141C34.7483 29.1368 33.7253 28.7593 32.8558 29.1694ZM9.97715 32.1578C8.63092 32.7928 8.66997 34.7864 10.0401 35.3714C10.8962 35.737 11.8804 35.3501 12.2659 34.4967C12.5641 33.8364 12.4014 32.9274 11.901 32.4574C11.4053 31.9917 10.5964 31.8658 9.97715 32.1578ZM17.46 32.1578C16.1138 32.7928 16.1528 34.7864 17.523 35.3714C18.379 35.737 19.3632 35.3501 19.7487 34.4967C20.0469 33.8364 19.8843 32.9274 19.3839 32.4574C18.8882 31.9917 18.0793 31.8658 17.46 32.1578Z" fill="#6CA841"/>
</svg>
