<svg width="47" height="53" viewBox="0 0 47 53" fill="none" xmlns="http://www.w3.org/2000/svg">
<path fill-rule="evenodd" clip-rule="evenodd" d="M20.842 0.0829375C14.8845 0.795545 9.34455 3.742 5.5721 8.20442C2.48612 11.8548 0.618594 16.1656 0.110133 20.8127C0.04348 21.4214 1.98582e-05 24.7372 1.98582e-05 29.2106C1.98582e-05 37.3134 -0.0130391 37.126 0.630608 38.246C0.988318 38.8684 1.75911 39.6248 2.40286 39.9852C3.20541 40.4344 3.8945 40.5768 5.26871 40.5772L6.52947 40.5775L6.7265 41.0527C6.98235 41.6696 7.91706 42.6655 8.60166 43.0508C11.2957 44.5669 14.631 43.2247 15.5043 40.2731C15.6493 39.7828 15.6707 38.8102 15.6707 32.7038C15.6707 26.6135 15.6491 25.6237 15.5051 25.1346C14.6373 22.1868 11.2942 20.8417 8.60166 22.3569C7.92176 22.7396 6.9835 23.7362 6.72912 24.3462L6.53459 24.8124L5.06949 24.8594C4.2636 24.8852 3.49114 24.9433 3.35292 24.9884L3.10146 25.0707L3.16195 23.2675C3.29922 19.1748 4.28376 15.7519 6.19704 12.7151C9.97472 6.71923 16.4443 3.14065 23.506 3.14065C30.5678 3.14065 37.0374 6.71923 40.815 12.7151C42.7283 15.7519 43.7129 19.1748 43.8501 23.2675L43.9106 25.0707L43.6592 24.9884C43.521 24.9433 42.7485 24.8852 41.9426 24.8594L40.4775 24.8124L40.283 24.3462C40.0286 23.7362 39.0903 22.7396 38.4104 22.3569C35.7179 20.8417 32.3748 22.1868 31.507 25.1346C31.363 25.6237 31.3414 26.6135 31.3414 32.7038C31.3414 38.8102 31.3628 39.7828 31.5078 40.2731C31.9765 41.857 33.2183 43.074 34.8354 43.5343C35.2973 43.6657 35.693 43.6976 36.3793 43.6589C37.2824 43.6078 37.3007 43.6113 37.2361 43.8269C36.9815 44.6765 35.9189 45.8138 34.9527 46.271C34.0397 46.7031 33.282 46.7907 30.4534 46.7912L27.9461 46.7916L27.749 46.3164C27.4932 45.6995 26.5585 44.7036 25.8739 44.3183C22.7111 42.5385 18.8048 44.7642 18.8048 48.3462C18.8048 51.9282 22.7111 54.1539 25.8739 52.374C26.5545 51.991 27.4921 50.9945 27.7471 50.3832L27.9422 49.9153L31.1828 49.8763C34.222 49.8399 34.4687 49.8227 35.1546 49.5995C37.7622 48.7513 39.6029 46.923 40.4318 44.3579C40.6151 43.7907 40.6775 43.2998 40.7179 42.1048L40.7697 40.5768H41.8869C43.5764 40.5768 44.5526 40.2244 45.5815 39.243C46.1785 38.6736 46.6168 37.9475 46.8522 37.1376C47.0064 36.6069 47.0197 35.7366 46.9827 28.5395C46.9375 19.7303 46.9539 19.977 46.2308 17.231C45.1365 13.0745 42.4878 8.79634 39.2581 5.96829C35.7404 2.8881 31.9738 1.08042 27.3715 0.263601C25.9838 0.017364 22.2533 -0.0859169 20.842 0.0829375ZM11.7988 25.1276C11.9389 25.2278 12.1504 25.4386 12.2689 25.5959C12.4814 25.8781 12.4843 25.9754 12.4843 32.7038C12.4843 39.4323 12.4814 39.5296 12.2689 39.8118C11.8823 40.3253 11.5344 40.5131 10.9695 40.5131C10.4046 40.5131 10.0568 40.3254 9.67009 39.8119C9.45874 39.5313 9.45404 39.4037 9.42301 33.0848C9.40567 29.5422 9.42061 26.4437 9.45623 26.1991C9.53417 25.6641 10.0099 25.0816 10.4839 24.9408C10.9069 24.8151 11.475 24.8958 11.7988 25.1276ZM36.8719 25.1276C37.012 25.2278 37.2235 25.4386 37.342 25.5959C37.5545 25.8781 37.5574 25.9754 37.5574 32.7038C37.5574 39.4323 37.5545 39.5296 37.342 39.8118C36.9554 40.3253 36.6075 40.5131 36.0426 40.5131C35.4777 40.5131 35.1299 40.3254 34.7432 39.8119C34.5318 39.5313 34.5271 39.4037 34.4961 33.0848C34.4788 29.5422 34.4937 26.4437 34.5293 26.1991C34.6073 25.6641 35.083 25.0816 35.557 24.9408C35.98 24.8151 36.5481 24.8958 36.8719 25.1276ZM6.26829 32.7159V37.4932L5.2264 37.4517C4.10522 37.407 3.85375 37.304 3.40181 36.7043C3.19642 36.4317 3.18483 36.2631 3.15348 33.085C3.13541 31.2515 3.15035 29.5515 3.18671 29.3069C3.26642 28.7703 3.74437 28.1871 4.21564 28.0518C4.39648 27.9999 4.93242 27.9531 5.40641 27.948L6.26829 27.9386V32.7159ZM43.1112 28.2076C43.2672 28.3231 43.4918 28.5463 43.6103 28.7037C43.8185 28.9801 43.8257 29.1142 43.8257 32.7038C43.8257 36.2935 43.8185 36.4276 43.6103 36.704C43.1586 37.3039 42.9071 37.407 41.7857 37.4517L40.7438 37.4932V32.7038V27.9145L41.7857 27.956C42.6259 27.9895 42.8823 28.0382 43.1112 28.2076ZM23.9167 46.8938C24.4005 47.0314 24.8449 47.4765 24.9743 47.9527C25.3651 49.3916 23.6352 50.4483 22.5028 49.4624C21.4915 48.5821 22.087 46.917 23.4545 46.8012C23.5123 46.7964 23.7203 46.838 23.9167 46.8938Z" fill="#6CA841"/>
</svg>
