<svg width="47" height="66" viewBox="0 0 47 66" fill="none" xmlns="http://www.w3.org/2000/svg">
<path fill-rule="evenodd" clip-rule="evenodd" d="M4.18892 29.6722C6.62832 42.676 8.43924 52.0295 8.54407 52.1663C8.87742 52.6014 9.09878 52.7144 9.62507 52.7185C10.2512 52.7234 10.8624 52.2684 10.9825 51.7082C11.0299 51.4867 10.742 49.6395 10.2448 46.9743C9.79627 44.5704 7.98371 34.8748 6.21679 25.4286C4.44986 15.9823 3.00422 8.20127 3.00422 8.13721C3.00422 8.07327 3.21639 7.98226 3.47558 7.93495C4.00338 7.83892 12.7455 6.12498 21.6074 4.38036C24.8221 3.74756 27.6867 3.19275 27.9731 3.1475L28.494 3.06513L28.586 3.6242C28.7067 4.35664 29.3334 5.02734 29.8971 5.02734C30.4728 5.02734 30.9716 4.71513 31.2063 4.20788C31.3996 3.79023 31.3957 3.67654 31.1407 2.30084C30.9004 1.00495 30.8229 0.790068 30.4619 0.418944C30.1719 0.120909 29.9384 -1.30865e-06 29.6527 -1.29616e-06C29.2989 -1.2807e-06 1.38813 5.44126 0.841472 5.61683C0.423528 5.75102 -0.0132694 6.43732 0.000305937 6.93864C0.00734499 7.19903 1.89218 17.4292 4.18892 29.6722ZM7.85638 11.7305C7.95015 12.5458 8.98829 22.6392 10.1636 34.1602C11.3387 45.6812 12.3345 55.3634 12.3766 55.6763C12.4882 56.507 12.9847 56.9766 13.7513 56.9766C14.2302 56.9766 14.4029 56.9082 14.7037 56.5998C15.0037 56.2922 15.0712 56.1137 15.0712 55.6283C15.0712 55.3013 14.6218 50.6417 14.0724 45.2737C13.5231 39.9056 12.7542 32.3812 12.3638 28.5527C11.9732 24.7242 11.4126 19.2715 11.1178 16.4355C10.8232 13.5996 10.588 11.2714 10.5954 11.2619C10.6333 11.2126 36.3318 8.48319 36.3715 8.52418C36.3972 8.55061 36.4759 8.99946 36.5464 9.52166C36.6893 10.5806 36.9731 11.0199 37.6269 11.1936C38.1607 11.3355 38.5168 11.2409 38.8903 10.8579C39.3493 10.3871 39.3758 10.138 39.1727 8.19805C38.9788 6.34657 38.8197 5.90893 38.2425 5.63913C37.8657 5.46318 38.5294 5.39962 21.06 7.28423C11.459 8.32 8.56343 8.6723 8.32272 8.83408C8.01602 9.0402 7.64031 9.75936 7.67035 10.0828C7.6789 10.1737 7.76249 10.9151 7.85638 11.7305ZM15.7967 65.4371C15.9162 65.5883 16.1374 65.7769 16.2884 65.856C16.486 65.9597 20.7077 66 31.3532 66L46.1435 66L46.5717 65.5608L47 65.1216L46.9677 38.8157L46.9354 12.5097L46.5868 12.1524L46.2384 11.7949L31.3351 11.7611L16.4317 11.7274L16.0028 12.1672L15.5739 12.607L15.5767 38.8846C15.5793 63.5874 15.5925 65.1786 15.7967 65.4371ZM31.2445 14.5664L44.2329 14.5664L44.2329 38.8652L44.2329 63.1641L31.2911 63.1641L18.3495 63.1641L18.31 62.1006C18.2884 61.5156 18.2674 50.5813 18.2634 37.8018L18.2561 14.5664L31.2445 14.5664ZM19.8087 56.4644C20.1091 56.9153 20.3069 57.0181 21.2172 57.1965C21.6594 57.2831 22.2322 57.4972 22.4902 57.6723C23.039 58.0447 23.6186 59.1303 23.6186 59.7857C23.6186 60.2875 23.9025 60.8459 24.2931 61.1121C24.5134 61.2623 25.6712 61.302 30.7833 61.3349C34.2054 61.3569 37.2493 61.3384 37.5474 61.2935C38.3916 61.1669 38.8162 60.6936 38.9476 59.7331C39.1613 58.1707 39.903 57.3983 41.4047 57.1739C42.2059 57.0542 42.4295 56.9272 42.7308 56.4205C42.9694 56.0193 42.975 55.6143 42.9754 38.891C42.9759 20.3481 43.0114 21.3226 42.3202 20.8262C42.1662 20.7155 41.8648 20.625 41.6506 20.625C40.9591 20.625 40.1188 20.2436 39.658 19.7206C39.2296 19.2342 39.0426 18.7533 38.8866 17.7375C38.8399 17.4326 38.6684 17.09 38.4512 16.8674L38.0931 16.5L31.2978 16.5L24.5025 16.5L24.1198 16.8545C23.8224 17.1301 23.7117 17.3735 23.6221 17.9479C23.5586 18.3543 23.4108 18.8942 23.2936 19.1476C22.9273 19.9391 21.8293 20.6064 20.8721 20.6193C20.5652 20.6235 20.3351 20.7438 20.0236 21.0633L19.5962 21.5016L19.5962 38.8236C19.5962 54.8735 19.6118 56.1692 19.8087 56.4644ZM23.2029 22.8846C24.3251 22.3833 25.3107 21.375 25.8183 20.2091L26.1954 19.3429L31.2428 19.3394L36.2902 19.3359L36.6756 20.1805C37.203 21.3362 38.2503 22.39 39.3621 22.8837L40.2106 23.2605L40.2081 38.8618L40.2056 54.4629L39.3056 54.8967C38.1194 55.4684 37.2257 56.3863 36.6747 57.599L36.2548 58.5234L31.2652 58.5234L26.2758 58.5234L25.837 57.5889C25.2693 56.3797 24.3358 55.4151 23.21 54.8742L22.3616 54.4666L22.3616 38.8636L22.3616 23.2605L23.2029 22.8846ZM24.0687 40.7203C24.9767 44.1826 27.843 46.4601 31.2861 46.455C33.404 46.4519 35.1543 45.6689 36.6305 44.0643C39.4311 41.0202 39.3535 36.4766 36.4501 33.5163C34.9657 32.0029 33.367 31.3242 31.2861 31.3242C29.1468 31.3242 27.6003 31.9881 26.0573 33.5686C24.9654 34.687 24.4268 35.6312 24.0626 37.0648C23.8237 38.0061 23.8266 39.797 24.0687 40.7203ZM26.8209 37.4331C27.3851 35.4847 29.2086 34.1398 31.2861 34.1398C33.1259 34.1398 34.6334 35.1154 35.4625 36.8423C35.8352 37.6188 35.874 37.8094 35.874 38.8625C35.874 39.9 35.8313 40.1179 35.4775 40.8838C34.9841 41.9518 34.2313 42.7185 33.1715 43.2323C31.1923 44.1919 28.6516 43.4644 27.4203 41.5854C27.1953 41.2421 26.9306 40.6926 26.832 40.3644C26.5953 39.576 26.5902 38.2299 26.8209 37.4331Z" fill="#6CA841"/>
</svg>
