<svg width="51" height="54" viewBox="0 0 51 54" fill="none" xmlns="http://www.w3.org/2000/svg">
<path fill-rule="evenodd" clip-rule="evenodd" d="M24.0299 0.242014C23.1432 0.549165 22.6006 0.978037 20.4993 3.03253C19.3603 4.14606 18.648 4.76279 18.4077 4.84337C18.1044 4.94516 17.6642 4.90961 15.7764 4.63104C13.0782 4.23276 11.9812 4.19532 11.1744 4.47378C9.52235 5.04399 8.41423 6.36341 8.02341 8.22572C7.93209 8.66082 7.71323 9.86801 7.53702 10.9083C7.3607 11.9487 7.15419 12.9217 7.07791 13.0706C6.84245 13.5305 6.5195 13.75 4.42893 14.8716C3.31594 15.4687 2.21187 16.0912 1.97547 16.255C0.570135 17.2289 -0.204552 19.0393 0.0470009 20.7619C0.137805 21.3834 0.370678 21.969 1.35914 24.0613C2.23428 25.9134 2.56097 26.7126 2.56097 27.0007C2.56097 27.2889 2.23428 28.0881 1.35914 29.9402C0.370678 32.0325 0.137805 32.6181 0.0470009 33.2396C-0.204552 34.9622 0.570135 36.7726 1.97547 37.7465C2.21187 37.9103 3.31594 38.5328 4.42893 39.1299C6.5195 40.2515 6.84245 40.471 7.07791 40.9309C7.15419 41.0798 7.3607 42.0528 7.53702 43.0932C8.15251 46.7271 8.32727 47.2609 9.22918 48.2639C9.87083 48.9775 10.9458 49.5416 11.9609 49.6975C12.5946 49.7948 12.9948 49.7625 15.3633 49.4226C17.6027 49.1011 18.1074 49.0574 18.4097 49.1588C18.6478 49.2386 19.3645 49.8601 20.4993 50.9708C21.4492 51.9005 22.4994 52.8677 22.833 53.1201C24.3843 54.2933 26.6065 54.2933 28.1578 53.1201C28.4914 52.8677 29.5416 51.9005 30.4915 50.9708C31.6319 49.8547 32.3425 49.2388 32.5831 49.1581C32.8864 49.0563 33.3266 49.0919 35.2144 49.3704C37.9126 49.7687 39.0096 49.8062 39.8165 49.5277C41.4685 48.9575 42.5766 47.6381 42.9674 45.7758C43.0587 45.3407 43.2776 44.1335 43.4538 43.0932C43.6301 42.0528 43.8366 41.0798 43.9129 40.9309C44.1484 40.471 44.4713 40.2515 46.5619 39.1299C47.6749 38.5328 48.779 37.9103 49.0154 37.7465C50.4258 36.7691 51.2226 34.8853 50.9453 33.1841C50.8572 32.6441 50.5455 31.8744 49.6299 29.9365C48.7562 28.0873 48.4299 27.2889 48.4299 27.0007C48.4299 26.7126 48.7562 25.9142 49.6299 24.065C50.5455 22.127 50.8572 21.3574 50.9453 20.8174C51.2226 19.1162 50.4258 17.2324 49.0154 16.255C48.779 16.0912 47.6749 15.4687 46.5619 14.8716C44.4713 13.75 44.1484 13.5305 43.9129 13.0706C43.8366 12.9217 43.6301 11.9487 43.4538 10.9083C43.2776 9.86801 43.0587 8.66082 42.9674 8.22572C42.5766 6.36341 41.4685 5.04399 39.8165 4.47378C39.0096 4.19532 37.9126 4.23276 35.2144 4.63104C33.3266 4.90961 32.8864 4.94516 32.5831 4.84337C32.3425 4.76268 31.6319 4.1468 30.4915 3.03074C29.5416 2.10095 28.4914 1.13383 28.1578 0.881419C27.002 0.00732607 25.4163 -0.238332 24.0299 0.242014ZM26.1482 3.31753C26.3074 3.40202 27.2744 4.28814 28.2971 5.2868C30.2223 7.16641 30.7246 7.56069 31.5631 7.85001C32.5047 8.17499 33.0842 8.1617 35.8875 7.75129L38.5484 7.36176L39.0249 7.57598C39.6976 7.87849 39.8374 8.26064 40.3307 11.1465C40.7924 13.8478 40.9762 14.4607 41.5576 15.24C42.1147 15.9863 42.5807 16.3045 45.1609 17.6995C47.3462 18.8811 47.4543 18.9542 47.6834 19.4074C47.8548 19.7467 47.9069 19.9872 47.867 20.2557C47.8364 20.4617 47.302 21.6957 46.6795 22.9981C46.057 24.3003 45.4959 25.5557 45.4327 25.7878C45.2848 26.3307 45.2848 27.6708 45.4327 28.2137C45.4959 28.4458 46.057 29.7012 46.6795 31.0034C47.302 32.3057 47.8364 33.5398 47.867 33.7458C47.9069 34.0143 47.8548 34.2548 47.6834 34.5941C47.4543 35.0473 47.3462 35.1204 45.1609 36.302C42.5807 37.697 42.1147 38.0151 41.5576 38.7615C40.9762 39.5408 40.7924 40.1537 40.3307 42.855C39.8374 45.7409 39.6976 46.123 39.0249 46.4255L38.5484 46.6397L35.8875 46.2502C33.0842 45.8398 32.5047 45.8265 31.5631 46.1515C30.7251 46.4407 30.2433 46.821 28.2013 48.8052C26.0959 50.8509 25.9451 50.9479 25.1147 50.7895C24.8134 50.7322 24.4723 50.4594 23.4802 49.4829C21.0694 47.11 20.6125 46.7114 19.9316 46.3875C18.7212 45.8118 18.2373 45.7974 15.1531 46.2453L12.4411 46.6391L11.9653 46.4252C11.2933 46.123 11.1533 45.7401 10.6601 42.855C10.1985 40.1537 10.0147 39.5408 9.43321 38.7615C8.87614 38.0151 8.41008 37.697 5.82991 36.302C3.6446 35.1204 3.53656 35.0473 3.30743 34.5941C3.13599 34.2548 3.08389 34.0143 3.12385 33.7458C3.15446 33.5398 3.6888 32.3057 4.31135 31.0034C4.9338 29.7012 5.49492 28.4458 5.55812 28.2137C5.706 27.6708 5.706 26.3307 5.55812 25.7878C5.49492 25.5557 4.9338 24.3003 4.31135 22.9981C3.6888 21.6957 3.15446 20.4617 3.12385 20.2557C3.08389 19.9872 3.13599 19.7467 3.30743 19.4074C3.53656 18.9542 3.6446 18.8811 5.82991 17.6995C8.41008 16.3045 8.87614 15.9863 9.43321 15.24C10.0147 14.4607 10.1985 13.8478 10.6601 11.1465C11.1534 8.26064 11.2932 7.87849 11.966 7.57598L12.4424 7.36176L15.1033 7.75129C17.9066 8.1617 18.4861 8.17499 19.4277 7.85001C20.2663 7.56069 20.7685 7.16641 22.6937 5.2868C23.7164 4.28814 24.6835 3.40202 24.8427 3.31753C25.2128 3.12134 25.778 3.12134 26.1482 3.31753ZM18.0518 13.1238C16.1409 13.5944 14.5165 15.1968 13.936 17.1842C13.7231 17.9132 13.7191 19.3792 13.9278 20.1937C14.2997 21.6447 15.4816 23.1168 16.8332 23.8127C18.5501 24.6966 20.7562 24.5867 22.3346 23.5385C23.9806 22.4456 24.8594 20.9327 24.9527 19.0311C25.0405 17.2418 24.5392 15.9103 23.306 14.6568C21.909 13.237 19.9331 12.6604 18.0518 13.1238ZM34.6692 15.4931C34.185 15.859 14.2861 36.1155 14.0421 36.4909C13.9377 36.6513 13.8725 36.971 13.8725 37.3222C13.8725 37.8551 13.9023 37.923 14.3258 38.3535C14.7494 38.784 14.8162 38.8142 15.3405 38.8142C15.686 38.8142 16.0006 38.748 16.1584 38.6419C16.5277 38.3939 36.4574 18.1687 36.8173 17.6765C37.0636 17.3399 37.1183 17.1601 37.1183 16.6869C37.1183 16.145 37.09 16.08 36.665 15.648C36.2399 15.216 36.176 15.1873 35.6428 15.1873C35.1773 15.1873 35.0003 15.2428 34.6692 15.4931ZM20.2272 16.3015C22.3417 17.0338 22.397 20.1795 20.3111 21.0678C19.8277 21.2736 18.9007 21.2601 18.3592 21.0393C17.8273 20.8224 17.1326 20.0554 16.9876 19.5248C16.4103 17.4122 18.2239 15.6078 20.2272 16.3015ZM30.8281 29.6323C28.7119 29.9685 26.9057 31.5269 26.273 33.5626C25.6207 35.6616 26.1407 37.7743 27.7 39.3599C29.9023 41.5991 33.313 41.5956 35.5515 39.3519C36.6934 38.2072 37.2221 36.9365 37.2221 35.3365C37.2221 33.8736 36.8658 32.831 35.986 31.7197C35.5545 31.1746 34.7218 30.477 34.1576 30.1879C33.2118 29.7032 31.8318 29.4729 30.8281 29.6323ZM32.6281 32.9758C33.1552 33.1662 33.8533 33.9281 34.0033 34.4767C34.5825 36.5965 32.7737 38.3961 30.7636 37.7C28.8144 37.0249 28.5553 34.2276 30.3383 33.1076C30.9767 32.7065 31.7577 32.6616 32.6281 32.9758Z" fill="#6CA841"/>
</svg>
