<svg width="54" height="54" viewBox="0 0 54 54" fill="none" xmlns="http://www.w3.org/2000/svg">
<path fill-rule="evenodd" clip-rule="evenodd" d="M24.2809 0.115226C14.9383 1.08012 6.78806 6.75597 2.68896 15.1519C1.76107 17.0523 1.16722 18.6774 0.697841 20.6006C0.11782 22.9773 0 24.0618 0 27.0283C0 29.9903 0.117926 31.08 0.69404 33.4407C1.61865 37.2291 3.45109 40.9362 5.92573 44.0247C6.84845 45.1761 8.82552 47.153 9.97574 48.0741C13.3361 50.7652 17.4415 52.6975 21.536 53.5152C23.5628 53.92 24.4601 54 26.9731 54C28.4477 54 29.8395 53.9445 30.4042 53.8631C35.5871 53.1159 40.0126 51.2177 43.9176 48.0666C45.1901 47.0397 47.3627 44.835 48.3165 43.6024C54.567 35.5262 55.7423 24.6648 51.3623 15.4542L50.7531 14.1731L52.2254 12.7095C53.0351 11.9045 53.7656 11.1176 53.8488 10.9608C54.0846 10.516 54.0399 9.82303 53.7478 9.39316C53.4389 8.93858 53.3868 8.91135 50.2616 7.56377L47.7376 6.47548L46.753 3.64362C46.1429 1.88887 45.6775 0.714429 45.5293 0.555655C45.0205 0.0110302 44.2567 -0.1545 43.6748 0.154075C43.518 0.237156 42.6811 1.01751 41.8151 1.88824L40.2405 3.47123L39.3227 3.01042C36.6138 1.64997 33.7613 0.745571 30.6681 0.266504C29.3467 0.0618083 25.6464 -0.025813 24.2809 0.115226ZM29.5596 3.3911C31.8182 3.62778 34.4273 4.33308 36.6485 5.30747C37.2113 5.5544 37.6875 5.80417 37.7069 5.86265C37.7263 5.92114 36.801 6.90904 35.6509 8.05804L33.5597 10.1471L32.6154 9.8319C30.6422 9.17316 29.6999 9.03919 27.0259 9.03676C24.8892 9.03497 24.4646 9.06358 23.4891 9.27503C17.7112 10.5279 13.1413 14.073 10.6723 19.2175C6.37252 28.1768 10.0762 38.8542 19.0023 43.2317C20.5688 43.9999 21.7794 44.422 23.4394 44.7788C24.467 44.9995 24.8658 45.0272 26.9731 45.0235C29.0354 45.0199 29.4946 44.9878 30.457 44.7799C32.8056 44.2728 35.0065 43.3665 36.8442 42.1496C38.0884 41.3257 38.4545 41.0279 39.5751 39.9287C41.7265 37.8178 43.2494 35.37 44.177 32.5316C45.2224 29.3328 45.2994 25.4089 44.3817 22.0957L44.0461 20.8843L46.199 18.7274L48.3517 16.5703L48.7034 17.3386C49.5556 19.2003 50.2777 21.7834 50.5654 23.9986C50.7489 25.4118 50.7764 28.2 50.6209 29.6147C50.1585 33.8222 48.5621 37.8635 45.9985 41.3169C45.1207 42.4992 42.8563 44.8252 41.6922 45.7401C32.2252 53.1801 18.6448 52.3729 10.1359 43.8645C6.43059 40.1593 4.1976 35.7001 3.37043 30.3537C3.12371 28.7588 3.12371 25.2977 3.37043 23.7029C4.20045 18.3381 6.51526 13.7687 10.2878 10.048C15.3872 5.01853 22.3011 2.63038 29.5596 3.3911ZM44.1472 5.96358L44.5827 7.27927L40.8221 11.0007L37.0614 14.7221L36.8811 13.9342C36.782 13.5007 36.6409 12.8468 36.5674 12.4809L36.4338 11.8157L40.0168 8.23181C41.9874 6.26064 43.6249 4.64789 43.6557 4.64789C43.6864 4.64789 43.9077 5.23991 44.1472 5.96358ZM48.1795 10.1756C48.8873 10.4871 49.4869 10.7623 49.512 10.7874C49.5371 10.8124 47.9517 12.4383 45.989 14.4002L42.4204 17.9675L41.0047 17.5835C40.2261 17.3723 39.5203 17.176 39.436 17.1474C39.3356 17.1132 40.5688 15.8091 43.025 13.3525C45.0831 11.2939 46.7952 9.60957 46.8299 9.60957C46.8644 9.60957 47.4717 9.86431 48.1795 10.1756ZM29.702 12.4104C30.7558 12.6102 31.7317 12.9023 32.7461 13.3215L33.5045 13.635L33.7209 14.6045C33.84 15.1378 34.027 15.9851 34.1366 16.4873L34.3356 17.4005L33.3463 18.3855L32.3571 19.3706L32.0669 19.1809C31.389 18.7376 29.9954 18.1467 29.1243 17.9333C27.8394 17.6185 25.907 17.6208 24.7032 17.9387C21.2953 18.8385 18.7527 21.4045 17.8319 24.873C17.5427 25.9623 17.5589 28.1693 17.8643 29.298C18.8073 32.782 21.4016 35.3085 24.9289 36.1776C26.0082 36.4435 28.1397 36.4145 29.2429 36.1189C34.5179 34.7055 37.5006 29.3071 35.8476 24.1654C35.6725 23.6206 35.3382 22.8491 35.1046 22.4507C34.871 22.0524 34.6799 21.6951 34.6799 21.6568C34.6799 21.6184 35.1004 21.1686 35.6143 20.6571L36.5486 19.7272L38.4911 20.2454L40.4337 20.7637L40.7826 21.5725C42.0546 24.5207 42.1374 28.6215 40.9912 31.8844C40.2149 34.0942 38.9387 36.0679 37.1994 37.7487C32.8102 41.9901 26.2222 43.0806 20.6681 40.4853C16.3985 38.4902 13.4019 34.6793 12.3851 29.9512C12.054 28.4115 12.054 25.645 12.3851 24.1053C13.0249 21.1302 14.3745 18.6306 16.4747 16.5305C18.9234 14.082 22.0746 12.5985 25.6534 12.2095C26.4321 12.1249 28.8221 12.2435 29.702 12.4104ZM28.8734 21.2007C29.1928 21.3149 29.5866 21.47 29.7488 21.5453L30.0435 21.6822L27.7276 24.0122C25.9294 25.8213 25.3952 26.4206 25.3376 26.6934C25.0829 27.9009 26.1799 28.9528 27.3384 28.612C27.6816 28.5111 28.2044 28.0503 30.0145 26.2531C32.5653 23.7206 32.3507 23.8052 32.794 25.1581C33.1367 26.2039 33.1426 27.8071 32.8077 28.8801C32.2511 30.6636 30.7456 32.2073 28.9497 32.8359C28.0419 33.1535 26.5223 33.2279 25.5598 33.0017C23.3965 32.4933 21.575 30.7057 21.0171 28.5438C20.8029 27.7135 20.8029 26.343 21.0171 25.5127C21.568 23.3777 23.3607 21.6007 25.518 21.0513C26.3063 20.8505 28.1204 20.9313 28.8734 21.2007Z" fill="#6CA841"/>
</svg>
