<svg width="88" height="89" viewBox="0 0 88 89" fill="none" xmlns="http://www.w3.org/2000/svg">
    <path fill-rule="evenodd" clip-rule="evenodd" d="M64.5207 1.1757C54.543 2.26522 45.0787 5.87064 37.0983 11.6223L35.5654 12.7272L34.1143 12.3672C30.2493 11.4083 26.7502 11.4559 23.2851 12.5142C21.5994 13.0291 18.8913 14.3948 17.4876 15.4375C16.8312 15.9253 13.5508 19.0546 10.1982 22.3913L4.10236 28.4582V29.22V29.9815L11.0294 36.9181L17.9565 43.8546L17.2521 49.0324C16.8649 51.8804 16.5483 54.426 16.5488 54.6896C16.5495 55.0294 16.7957 55.4288 17.3949 56.0626L18.2399 56.9565L13.2915 61.894C10.5697 64.6098 8.18683 67.0462 7.99602 67.3083C6.97039 68.7175 8.36382 70.6068 9.92776 69.9273C10.2541 69.7853 12.6763 67.492 15.6108 64.5463L20.725 59.4126L24.9457 63.6318L29.1664 67.8511L21.8458 75.1871C16.8022 80.2412 14.488 82.6744 14.4061 83.01C14.1343 84.1224 15.2807 85.2553 16.4645 85.0444C16.8577 84.9745 18.6718 83.264 24.3081 77.6487L31.6402 70.3441L32.4319 71.0957C32.8674 71.5092 33.4234 71.8975 33.6676 71.9589C33.9116 72.0202 36.499 71.7457 39.417 71.3488L44.7225 70.6276L51.6567 77.5559L58.591 84.4843H59.3523H60.1138L66.1791 78.3869C69.515 75.0332 72.6434 71.7522 73.1311 71.0956C74.1736 69.6915 75.5389 66.9827 76.0537 65.2966C77.0698 61.968 77.1569 58.1274 76.2895 54.8926C75.7845 53.0097 75.763 53.121 76.954 51.4676C81.8815 44.6274 85.4693 36.0835 86.868 27.8593C87.931 21.6076 87.9078 14.4768 86.8039 8.30688C86.2246 5.06834 85.8219 3.60649 85.3905 3.17498C84.7661 2.55023 80.5658 1.65514 75.9736 1.16803C73.0629 0.859319 67.3833 0.863071 64.5207 1.1757ZM76.3146 4.75042C79.1652 5.061 82.3218 5.66512 82.6125 5.95592C82.8846 6.22813 83.4917 9.33875 83.8347 12.2179C84.1638 14.9806 84.163 20.8277 83.833 23.7662C81.7488 42.3282 70.3988 58.4654 53.8468 66.3998C51.3923 67.5765 48.447 68.793 48.0528 68.793C47.9348 68.793 41.509 62.4618 33.7733 54.7238L19.7084 40.6543L20.0232 39.7573C21.3828 35.8823 24.1201 30.6242 26.5535 27.2132C37.9512 11.2365 56.9841 2.64488 76.3146 4.75042ZM32.0046 15.4604C32.0689 15.5245 31.1788 16.5179 30.0268 17.6674C24.8009 22.8827 20.5321 29.2454 17.763 35.9478L16.9549 37.9034L12.6174 33.5583L8.27993 29.213L13.4806 24.0512C18.399 19.1695 19.9619 17.8076 21.6012 16.9746C24.1381 15.6857 26.2878 15.2257 29.4621 15.2926C30.7963 15.3205 31.9405 15.3961 32.0046 15.4604ZM56.1066 22.4695C50.0564 24.0913 44.8209 25.5126 44.4718 25.6278C43.3036 26.0135 42.8364 27.1132 43.3935 28.1663C43.5275 28.4195 44.371 29.354 45.2681 30.2428L46.8992 31.8588L43.4228 35.3595C39.6714 39.1372 39.4621 39.4491 39.9923 40.4745C40.3382 41.1438 41.2336 41.5931 41.8955 41.4297C42.4446 41.2942 50.4982 33.4013 50.9373 32.5687C51.3818 31.7254 51.1222 31.1522 49.6044 29.6255C48.4589 28.4733 48.278 28.2205 48.5428 28.1417C48.9568 28.0187 62.5465 24.3809 63.8027 24.057L64.7611 23.8097L64.5139 24.7684C64.1901 26.0249 60.5532 39.6182 60.4303 40.0323C60.3515 40.2972 60.0988 40.1162 58.9468 38.9704C57.4206 37.4523 56.8475 37.1925 56.0045 37.6371C55.7337 37.7799 52.347 41.0725 48.4784 44.9537L41.4447 52.0105V52.7398C41.4447 53.7685 42.1419 54.4662 43.1698 54.4662H43.898L50.3061 48.0712L56.714 41.6761L58.3297 43.3077C59.2183 44.2051 60.1525 45.0489 60.4057 45.1829C61.2914 45.6516 62.3266 45.3816 62.7617 44.5686C62.8586 44.3876 64.0528 40.0742 65.4156 34.9834C69.4811 19.797 69.1196 21.3206 68.8246 20.6143C68.5953 20.0653 67.7482 19.4755 67.2402 19.5113C67.1669 19.5164 62.1567 20.8476 56.1066 22.4695ZM34.6373 44.2459C33.9055 44.9779 33.9055 45.8754 34.6373 46.6074C35.0412 47.0115 35.3127 47.1322 35.8178 47.1322C36.7529 47.1322 37.5229 46.3502 37.5229 45.4004C37.5229 43.8579 35.7388 43.1439 34.6373 44.2459ZM31.3776 57.2736C36.9532 62.8513 41.4802 67.445 41.4374 67.4818C41.3946 67.5186 39.8632 67.752 38.0346 68.0003L34.7096 68.4516L27.4214 61.1604L20.1331 53.8693L20.5915 50.5008C20.8435 48.648 21.0926 47.1322 21.145 47.1322C21.1971 47.1322 25.8018 51.6959 31.3776 57.2736ZM73.2222 57.3043C73.5514 59.7073 73.2034 62.9554 72.3831 65.1353C71.2662 68.1035 70.4986 69.0765 64.5197 75.1037L59.3593 80.3057L55.0151 75.967L50.6711 71.6284L52.6262 70.8201C59.3216 68.0523 65.7472 63.7405 70.8589 58.5852C71.9839 57.4506 72.9514 56.5201 73.009 56.5175C73.0667 56.515 73.1625 56.869 73.2222 57.3043ZM3.78009 71.5895C3.55604 71.7137 3.27094 71.9988 3.1468 72.223C2.19654 73.9377 4.43708 75.6479 5.82062 74.264C7.22326 72.861 5.51796 70.6259 3.78009 71.5895ZM7.55951 78.5617C0.378868 85.7442 0.351074 85.7748 0.351074 86.4795C0.351074 87.481 1.10645 88.2366 2.1077 88.2366C2.81226 88.2366 2.84278 88.2088 10.0234 81.0263C17.2041 73.8438 17.2319 73.8132 17.2319 73.1085C17.2319 72.107 16.4765 71.3514 15.4752 71.3514C14.7707 71.3514 14.7402 71.3792 7.55951 78.5617Z" fill="currentColor"/>
</svg>
