<svg width="93" height="94" viewBox="0 0 93 94" fill="none" xmlns="http://www.w3.org/2000/svg">
<path fill-rule="evenodd" clip-rule="evenodd" d="M6.40635 0.17548C5.15635 0.559174 4.03515 1.51602 3.38058 2.7578C3.07586 3.33573 3.03638 3.95423 2.98672 8.91325L2.9316 14.4263L2.37909 14.6731C-0.879717 16.1287 -0.760193 21.9721 2.55028 23.0323C2.90467 23.1457 2.92013 23.3297 2.994 28.3291C3.06367 33.043 3.10515 33.6037 3.45736 34.5686C4.44957 37.2888 6.13346 39.4636 8.17993 40.6683L9.11538 41.219L9.17651 56.4567L9.23782 71.6943L9.72028 73.4762C11.9632 81.7587 18.7141 87.2617 27.1717 87.7019L29.2888 87.812L29.3625 89.51C29.4571 91.692 29.9959 92.6987 31.4911 93.4871L32.4641 94L57.1395 93.9989C83.5448 93.9978 82.721 94.0279 83.8497 93.0277C85.2565 91.7814 85.1721 92.9585 85.1766 74.494C85.1788 65.4316 85.2043 58.0172 85.2332 58.0172C85.2619 58.0172 85.6067 58.1824 85.9993 58.3843C87.4074 59.1088 88.5386 58.748 89.8431 57.1582C94.3811 51.6286 94.4517 51.9245 87.248 46.2675L82.0879 42.2152L82.085 35.567C82.0808 26.3794 82.2478 26.624 75.9767 26.624C72.0566 26.624 71.5894 26.7029 70.7475 27.5077C69.9326 28.2865 69.8222 28.6181 69.7212 30.5891L69.6261 32.4427L64.1684 28.156C57.6788 23.0587 57.2725 22.8709 55.5555 24.1738C52.2543 26.679 22.4222 50.1716 22.1439 50.4855C21.857 50.8092 21.78 51.1551 21.78 52.1224V53.3488L23.6322 55.7479C26.0001 58.8148 26.871 59.2756 28.6095 58.3807L29.3299 58.0096V68.2299V78.4501L27.7381 78.3354C23.3862 78.0218 20.3099 75.7358 18.924 71.7861L18.5054 70.5928L18.451 55.9832L18.3964 41.3736L19.5629 40.6125C23.552 38.009 24.5995 35.4679 24.7343 28.0666C24.8216 23.2732 24.8313 23.172 25.2168 22.9947C28.4572 21.5049 28.5396 16.0334 25.3416 14.6968L24.8138 14.4761L24.7492 9.03001L24.6846 3.58394L24.1936 2.63865C22.6505 -0.332319 18.7414 -0.874265 16.6007 1.58615C15.4445 2.91495 15.4205 3.05613 15.3556 8.86203L15.2968 14.1401H13.7628H12.229V8.85212V3.56429L11.7578 2.61001C10.7782 0.626367 8.42498 -0.444123 6.40635 0.17548ZM8.28417 3.33848C9.1092 3.78202 9.12448 3.88594 9.13048 9.13741L9.1363 14.1401H7.58995H6.04359V9.16917V4.19821L6.57536 3.66159C7.14296 3.0888 7.64343 2.99426 8.28417 3.33848ZM21.1888 3.69042C21.4748 4.04363 21.5071 4.59549 21.5071 9.11924V14.155L20.0063 14.1016L18.5054 14.0483V9.02946V4.01059L19.0375 3.54905C19.6775 2.99371 20.6778 3.05943 21.1888 3.69042ZM24.1205 17.6417C24.717 18.1149 24.7812 19.1974 24.2522 19.8568L23.9045 20.2903L13.964 20.3407L4.0235 20.3912L3.48719 19.85C2.75422 19.1102 2.82626 18.1447 3.66275 17.4964C4.25073 17.0408 23.5361 17.1777 24.1205 17.6417ZM21.5071 28.1556C21.5071 32.2826 21.4673 32.9254 21.1542 33.8439C18.9617 40.2743 9.97788 40.9554 6.9725 34.9189C6.17294 33.3129 6.04359 32.3104 6.04359 27.7165V23.503H13.7754H21.5071V28.1556ZM73.6246 39.5403L89.7425 52.1813L89.2428 52.8503C87.9031 54.6441 87.296 55.3506 87.1352 55.3025C87.0384 55.2735 80.5264 50.1993 72.6644 44.0264C57.6569 32.2439 57.6804 32.2613 56.9931 32.4427C56.6875 32.5233 34.0486 50.1083 27.5727 55.2953C27.3684 55.4589 24.949 52.5841 24.9743 52.2078C24.9886 51.9917 57.1841 26.7828 57.3631 26.8474C57.4421 26.876 64.7598 32.5878 73.6246 39.5403ZM78.9952 34.717C78.9952 37.4517 78.9281 39.6617 78.8462 39.6279C78.7641 39.5943 77.3755 38.5341 75.76 37.2719L72.8229 34.9771L72.8163 32.361L72.8098 29.7449H75.9025H78.9952V34.717ZM69.7802 45.7169L82.0739 55.3552L82.0808 72.8968C82.0863 86.3035 82.0364 90.4904 81.8696 90.6587C81.493 91.0388 33.0861 90.9716 32.7084 90.5906C32.4526 90.3323 32.4226 88.4742 32.4226 72.8891V55.4761L44.8389 45.7318C51.668 40.3723 57.3073 36.008 57.3709 36.0331C57.4344 36.0581 63.0186 40.4159 69.7802 45.7169ZM15.3654 56.5944C15.4323 72.5482 15.3705 71.7147 16.6871 74.4481C18.7148 78.6579 22.5627 81.1398 27.5561 81.4585L29.3299 81.5716V83.1324V84.6933L27.3742 84.5789C20.154 84.1572 14.6701 79.7196 12.7209 72.7211C12.342 71.3607 12.3313 70.9769 12.2718 56.778L12.2108 42.2288H13.7581H15.3052L15.3654 56.5944ZM60.1417 50.3877C59.5029 50.6682 47.2247 64.1601 46.7306 65.1247C45.6301 67.2719 47.0882 68.8487 50.1742 68.8487C51.7126 68.8487 52.2536 68.9084 52.2576 69.0782C52.2605 69.2045 51.9187 72.2405 51.4981 75.825C50.6394 83.1435 50.6479 83.2968 51.9649 84.1075C53.912 85.3063 54.1123 85.1559 61.4395 76.9959C68.2509 69.4103 68.0645 69.6497 68.0726 68.4816C68.0859 66.5657 66.8654 65.7382 64.0159 65.7318L62.2261 65.7278L62.3338 65.0393C62.6548 62.9868 63.7127 53.5639 63.713 52.7532C63.7141 50.8613 61.8597 49.6332 60.1417 50.3877ZM59.7169 60.9074C58.6937 69.4057 58.4876 68.7114 62.0746 68.8487L64.4715 68.9405L59.3194 74.6647C56.4859 77.813 54.1485 80.3698 54.1252 80.3465C54.1021 80.323 54.4371 77.3754 54.8695 73.796C55.8763 65.4645 56.0067 65.8886 52.3886 65.7298L50.2506 65.636L55.2994 60.0278C58.0761 56.9434 60.3711 54.509 60.3991 54.6179C60.4273 54.7269 60.1202 57.5571 59.7169 60.9074Z" fill="currentColor"/>
</svg>
