<svg width="88" height="77" viewBox="0 0 88 77" fill="none" xmlns="http://www.w3.org/2000/svg">
    <path fill-rule="evenodd" clip-rule="evenodd" d="M61.0503 1.94416C59.4092 2.79135 54.476 5.31244 50.0876 7.54645C41.7461 11.7928 41.6025 11.8842 41.6189 12.9299C41.6332 13.8358 42.0117 14.1085 46.326 16.3214L50.5643 18.495L50.6128 20.283L50.6612 22.0708H32.8651C15.7112 22.0708 15.0215 22.0826 13.7542 22.3997C9.68443 23.418 6.50233 26.5311 5.4614 30.5126C5.13813 31.7493 5.12517 32.4213 5.12517 47.9521V64.1055H3.2365C1.37631 64.1055 1.34034 64.1128 0.849456 64.593C0.402225 65.0306 0.351074 65.1904 0.351074 66.151C0.351074 67.5753 0.878271 69.5211 1.66344 70.9945C2.62218 72.7935 4.63685 74.7074 6.49875 75.5876C9.20037 76.865 6.78161 76.7774 39.4117 76.7801C67.9762 76.7826 68.6996 76.7748 69.9831 76.4537C72.0176 75.9446 73.5431 75.0779 75.1211 73.5341C77.2399 71.461 78.4417 68.7893 78.4417 66.151C78.4417 65.1904 78.3905 65.0306 77.9433 64.593C77.4524 64.1128 77.4164 64.1055 75.5554 64.1055H73.6658L73.7093 48.3323L73.7528 32.5589L75.7136 31.7311C76.792 31.2759 77.8662 30.7159 78.1006 30.4867L78.5269 30.0702L78.6122 24.2939L78.6974 18.5177L81.4681 17.1107L84.2388 15.7038L84.2425 21.0975C84.2459 25.956 84.2756 26.5264 84.5409 26.8469C85.1452 27.5766 85.9494 27.7536 86.7716 27.3376C87.632 26.9024 87.6488 26.7461 87.6488 19.2366V12.248L87.2652 11.8353C87.0541 11.6083 81.9968 8.93943 76.0265 5.90442C67.9201 1.78336 65.0275 0.388371 64.6027 0.395043C64.2268 0.400715 63.0234 0.925648 61.0503 1.94416ZM73.4121 8.43451C78.1448 10.8428 82.0171 12.8507 82.0173 12.8965C82.0176 13.0515 64.9693 21.6538 64.6621 21.6538C64.3541 21.6538 47.2492 13.0512 47.2497 12.8965C47.2501 12.7803 64.3252 4.09093 64.5911 4.07158C64.71 4.0629 68.6793 6.02636 73.4121 8.43451ZM63.5217 11.6312C62.3765 12.7516 63.0653 14.5646 64.6362 14.5646C65.1857 14.5646 65.4479 14.4582 65.8375 14.077C66.9335 13.0048 66.1845 11.2285 64.6362 11.2285C64.1206 11.2285 63.8237 11.3357 63.5217 11.6312ZM60.576 23.593C62.8928 24.7827 64.2928 25.4069 64.6443 25.4069C65.0005 25.4069 66.6464 24.6591 69.5518 23.1772C71.956 21.9508 74.1726 20.8229 74.4774 20.6708L75.0316 20.3942L75.0289 24.36L75.0261 28.3259L69.8444 30.4652L64.6626 32.6043L59.489 30.4627L54.3154 28.3213L54.2697 24.3585L54.224 20.3959L55.6337 21.0875C56.409 21.4679 58.6331 22.5954 60.576 23.593ZM50.6791 27.6472C50.728 29.6132 50.7787 29.9449 51.0934 30.3578C51.377 30.7294 52.7718 31.3815 57.743 33.4665C61.7652 35.1536 64.2493 36.1074 64.6309 36.1112C64.9946 36.1149 66.1717 35.7195 67.6457 35.0989C68.9756 34.5389 70.1073 34.0807 70.1606 34.0807C70.2138 34.0807 70.2575 40.8363 70.2575 49.0931V64.1055H58.3091H46.3607L45.8624 64.593C45.1606 65.2796 45.1606 66.2674 45.8624 66.954L46.3607 67.4416H60.5257C76.7861 67.4416 75.1219 67.2205 74.0878 69.2425C73.0525 71.267 71.0957 72.7189 68.7453 73.2063C67.06 73.5558 11.7327 73.5558 10.0474 73.2063C7.69704 72.7189 5.74018 71.267 4.70488 69.2425C3.67078 67.2205 2.00666 67.4416 18.2671 67.4416H32.432L32.9304 66.954C33.6322 66.2674 33.6322 65.2796 32.9304 64.593L32.432 64.1055H20.4836H8.53524L8.53814 48.4676C8.54138 31.2787 8.52995 31.4897 9.57309 29.575C10.6309 27.6335 12.6708 26.1308 14.8887 25.6594C15.7419 25.4781 19.3787 25.4307 33.2877 25.42L50.6232 25.4069L50.6791 27.6472ZM17.9129 32.0053C16.8475 32.3399 15.6035 33.2825 14.9987 34.2138C13.9842 35.7756 13.9745 35.8845 14.028 45.115L14.0766 53.5211L14.6379 54.6362C15.2481 55.8485 16.1008 56.677 17.3782 57.2987L18.1687 57.6835H30.7859H43.4032L44.2714 57.2353C45.3737 56.6663 46.7708 55.1783 47.173 54.1449C47.4545 53.4213 47.4891 52.6006 47.5411 45.3842C47.6008 37.1262 47.5403 36.1282 46.9006 34.8355C46.4492 33.9234 45.3045 32.8131 44.2557 32.2702L43.4032 31.8288L31.0417 31.7966C20.6669 31.7694 18.5569 31.803 17.9129 32.0053ZM42.7367 35.4225C44.045 36.0421 44.0158 35.8143 43.9621 44.9864L43.9147 53.0697L43.4884 53.5216C42.611 54.4517 42.8944 54.4316 30.7488 54.4215C22.5247 54.4145 19.3752 54.3589 18.9419 54.213C18.6043 54.0992 18.184 53.7709 17.9615 53.447L17.5719 52.8802V44.7562V36.6321L17.9615 36.0653C18.184 35.7414 18.6043 35.4131 18.9419 35.2994C19.3752 35.1534 22.5305 35.0979 30.7747 35.0909C41.7595 35.0817 42.0332 35.0894 42.7367 35.4225ZM27.8666 40.6629C26.8437 41.0908 26.7791 41.334 26.7791 44.7562C26.7791 48.189 26.8434 48.4269 27.8848 48.8525C28.6284 49.1565 28.8876 49.0629 31.75 47.4562C34.2304 46.0639 34.7928 45.5663 34.7928 44.7638C34.7928 43.9233 34.3283 43.5091 31.7723 42.0696C30.374 41.2821 29.0431 40.5934 28.8144 40.5392C28.5859 40.4848 28.1593 40.5405 27.8666 40.6629ZM53.194 46.9118C52.8032 47.2943 52.6956 47.5488 52.6956 48.0923C52.6956 48.6357 52.8032 48.8902 53.194 49.2727L53.6924 49.7603H58.9144C64.5807 49.7603 64.8742 49.7183 65.2796 48.8475C65.6783 47.9917 65.3908 47.0589 64.6061 46.6619C64.2295 46.4714 63.1004 46.4242 58.9144 46.4242H53.6924L53.194 46.9118ZM53.194 54.9184C52.8032 55.3009 52.6956 55.5554 52.6956 56.0989C52.6956 56.6423 52.8032 56.8969 53.194 57.2793L53.6924 57.7669H58.9144C64.5807 57.7669 64.8742 57.7249 65.2796 56.8542C65.6783 55.9983 65.3908 55.0655 64.6061 54.6685C64.2295 54.478 63.1004 54.4308 58.9144 54.4308H53.6924L53.194 54.9184ZM38.1897 64.593C37.0915 65.6676 37.8429 67.4416 39.3964 67.4416C39.9519 67.4416 40.212 67.3363 40.603 66.954C41.7012 65.8794 40.9498 64.1055 39.3964 64.1055C38.8409 64.1055 38.5807 64.2107 38.1897 64.593Z" fill="currentColor"/>
</svg>
