<svg width="88" height="88" viewBox="0 0 88 88" fill="none" xmlns="http://www.w3.org/2000/svg">
    <path fill-rule="evenodd" clip-rule="evenodd" d="M7.64121 8.15413L0.351074 15.3694V50.8551V86.3409L0.849381 86.8341L1.34769 87.3272H14.0745H26.8014L27.2997 86.8341C28.0014 86.1396 28.0014 85.1404 27.2997 84.4459L26.8014 83.9527H15.281H3.76063V50.8821V17.8116H10.0814H16.4022L16.9005 17.3184L17.3988 16.8252V10.5693V4.31339H40.3281H63.2573L63.2541 28.1461L63.2509 51.9789L62.2091 53.1259L61.1675 54.2727L58.8454 52.0124C56.891 50.11 56.3196 49.6553 55.2355 49.1402C52.7938 47.9797 50.203 47.975 47.7838 49.1267C46.8032 49.5934 46.1184 50.1154 44.6719 51.4985C42.5966 53.4829 42.2821 54.0319 42.6896 54.9593C42.8377 55.2967 47.0067 59.5436 53.097 65.5609L63.2573 75.5997V79.7762V83.9527H51.9927H40.728L40.2297 84.4459C39.528 85.1404 39.528 86.1396 40.2297 86.8341L40.728 87.3272H53.1992H65.6703L66.1686 86.8341L66.6669 86.3409V82.6852V79.0296L67.1915 79.4664C67.572 79.7833 67.9112 79.9034 68.4274 79.9037C69.1109 79.9043 69.2157 79.8266 71.1002 77.9212C72.4637 76.5427 73.2039 75.6464 73.5281 74.9813C74.8224 72.327 74.8222 69.7592 73.5273 67.1088C73.1935 66.4253 72.4064 65.4884 70.7732 63.8299L68.4867 61.5077L68.8979 61.0719C69.5037 60.4303 73.1328 57.5521 75.1908 56.0816C77.7549 54.2493 79.7494 53.0079 81.8036 51.9654C84.5023 50.5958 85.7776 49.4741 86.7129 47.6473C88.4258 44.3018 87.7465 40.3509 85.0117 37.7516C83.2839 36.1096 81.4422 35.3648 79.1002 35.3612C75.5808 35.3557 72.9112 37.153 71.0272 40.796C70.4859 41.8426 69.3027 43.7995 68.3976 45.1447L66.7521 47.5904L66.6669 24.6719L66.5817 1.75329L66.1033 1.34598L65.6249 0.938843H40.2781H14.9314L7.64121 8.15413ZM13.9893 10.6407V14.437H10.1123H6.23545L10.0683 10.6407C12.1764 8.55266 13.9211 6.8443 13.9453 6.8443C13.9695 6.8443 13.9893 8.55266 13.9893 10.6407ZM33.0697 11.5557C32.6789 11.9426 32.5714 12.2 32.5714 12.7498C32.5714 13.2995 32.6789 13.5569 33.0697 13.9438L33.568 14.437H35.9809H38.3939L38.8922 13.9438C39.2829 13.5569 39.3905 13.2995 39.3905 12.7498C39.3905 12.2 39.2829 11.9426 38.8922 11.5557L38.3939 11.0625H35.9809H33.568L33.0697 11.5557ZM43.2983 11.5557C42.9076 11.9426 42.8 12.2 42.8 12.7498C42.8 13.2995 42.9076 13.5569 43.2983 13.9438L43.7966 14.437H46.2096H48.6225L49.1208 13.9438C49.5116 13.5569 49.6191 13.2995 49.6191 12.7498C49.6191 12.2 49.5116 11.9426 49.1208 11.5557L48.6225 11.0625H46.2096H43.7966L43.2983 11.5557ZM53.527 11.5557C53.1363 11.9426 53.0287 12.2 53.0287 12.7498C53.0287 13.2995 53.1363 13.5569 53.527 13.9438L54.0253 14.437H56.4382H58.8512L59.3495 13.9438C59.7402 13.5569 59.8478 13.2995 59.8478 12.7498C59.8478 12.2 59.7402 11.9426 59.3495 11.5557L58.8512 11.0625H56.4382H54.0253L53.527 11.5557ZM7.66849 22.6917L7.17018 23.1849V27.2603V31.3358L7.66849 31.8289L8.1668 32.3221H33.509H58.8512L59.3495 31.8289L59.8478 31.3358V27.2603V23.1849L59.3495 22.6917L58.8512 22.1985H33.509H8.1668L7.66849 22.6917ZM21.8313 27.2603V28.9476H16.2055H10.5797V27.2603V25.573H16.2055H21.8313V27.2603ZM56.4382 27.2603V28.9476H40.8395H25.2408V27.2603V25.573H40.8395H56.4382V27.2603ZM7.66849 36.1899C7.27775 36.5768 7.17018 36.8342 7.17018 37.3839C7.17018 37.9337 7.27775 38.1911 7.66849 38.578L8.1668 39.0712H33.509H58.8512L59.3495 38.578C60.0512 37.8836 60.0512 36.8843 59.3495 36.1899L58.8512 35.6967H33.509H8.1668L7.66849 36.1899ZM81.286 39.3073C84.4346 40.9017 85.0942 44.949 82.6016 47.3809C82.245 47.729 81.1413 48.425 80.149 48.9279C76.6112 50.7207 71.6822 54.1153 67.7975 57.4342L65.9449 59.017L64.7891 57.8818L63.6332 56.7466L65.145 55.0376C68.5662 51.1703 72.1738 46.132 73.8672 42.8561C75.1321 40.4092 75.9937 39.5627 77.8332 38.9597C78.7727 38.6518 80.2939 38.8048 81.286 39.3073ZM7.66849 42.939C7.27775 43.3259 7.17018 43.5833 7.17018 44.133C7.17018 44.6828 7.27775 44.9402 7.66849 45.3271L8.1668 45.8203H33.509H58.8512L59.3495 45.3271C60.0512 44.6326 60.0512 43.6334 59.3495 42.939L58.8512 42.4458H33.509H8.1668L7.66849 42.939ZM7.66849 49.6881C7.27775 50.0749 7.17018 50.3324 7.17018 50.8821C7.17018 51.4319 7.27775 51.6893 7.66849 52.0762L8.1668 52.5694H23.0246H37.8824L38.3807 52.0762C38.7715 51.6893 38.879 51.4319 38.879 50.8821C38.879 50.3324 38.7715 50.0749 38.3807 49.6881L37.8824 49.1949H23.0246H8.1668L7.66849 49.6881ZM53.825 52.3025C54.4319 52.6293 56.9839 55.0489 62.5299 60.5551C69.9119 67.8846 70.3939 68.3997 70.6767 69.263C71.3508 71.3192 70.9248 73.1218 69.3848 74.7302L68.3897 75.7694L57.5583 65.0586L46.727 54.3478L47.4484 53.6172C48.8568 52.191 50.0245 51.6936 51.7615 51.7799C52.6737 51.8253 53.175 51.9522 53.825 52.3025ZM7.66849 56.4371C7.27775 56.824 7.17018 57.0815 7.17018 57.6312C7.17018 58.1809 7.27775 58.4384 7.66849 58.8253L8.1668 59.3185H19.6151H31.0633L31.5616 58.8253C32.2633 58.1308 32.2633 57.1316 31.5616 56.4371L31.0633 55.944H19.6151H8.1668L7.66849 56.4371ZM35.9678 56.4371C34.8697 57.5241 35.621 59.3185 37.1743 59.3185C37.7297 59.3185 37.9898 59.212 38.3807 58.8253C39.4788 57.7384 38.7275 55.944 37.1743 55.944C36.6188 55.944 36.3587 56.0504 35.9678 56.4371ZM38.1877 63.0111C35.3998 63.8942 33.1962 66.0671 32.393 68.7251L32.1764 69.4421H27.5022H22.8279L22.3296 69.9353C21.6279 70.6298 21.6279 71.629 22.3296 72.3235L22.8279 72.8167H27.5022H32.1764L32.3903 73.5338C32.7759 74.8264 33.6143 76.157 34.6839 77.1734C36.387 78.792 38.2996 79.5658 40.5968 79.5658C45.2948 79.5658 49.1077 75.7806 49.1077 71.1166C49.1077 67.3386 46.573 64.0557 42.8116 62.9622C41.5816 62.6046 39.3983 62.6278 38.1877 63.0111ZM42.6863 66.6236C46.6104 68.4016 46.5768 73.8672 42.6306 75.6623C40.2642 76.7388 37.3239 75.7374 36.1328 73.4494L35.8034 72.8167H38.5478H41.292L41.7903 72.3235C42.181 71.9366 42.2886 71.6791 42.2886 71.1294C42.2886 70.5797 42.181 70.3222 41.7903 69.9353L41.292 69.4421H38.5478H35.8034L36.1413 68.7868C37.3389 66.4634 40.2267 65.5091 42.6863 66.6236ZM32.5582 84.4459C31.4602 85.5328 32.2115 87.3272 33.7647 87.3272C34.3201 87.3272 34.5803 87.2208 34.9712 86.8341C36.0692 85.7471 35.3179 83.9527 33.7647 83.9527C33.2093 83.9527 32.9491 84.0592 32.5582 84.4459Z" fill="currentColor"/>
</svg>
