<svg width="89" height="88" viewBox="0 0 89 88" fill="none" xmlns="http://www.w3.org/2000/svg">
<path fill-rule="evenodd" clip-rule="evenodd" d="M67.812 0.136909C64.6995 0.508966 63.0119 1.30684 63.0119 2.40635C63.0119 4.01877 64.0011 4.50918 66.1258 3.95041C77.5455 0.947842 88.2384 11.7382 84.925 22.9212C84.301 25.028 84.305 25.0207 77.19 36.4813L70.8183 46.7447H70.0125H69.2066L68.493 45.5852C68.1008 44.9476 65.1201 40.1358 61.8692 34.8924C53.6484 21.6326 53.3183 20.5001 55.5286 13.1419C56.2287 10.8115 53.2098 9.91946 52.2302 12.1673C51.6965 13.3923 50.9682 16.6503 50.9682 17.8136C50.9682 17.8541 49.788 17.8871 48.3455 17.8871H45.7228L39.4873 14.726C36.0578 12.9875 31.2489 10.5473 28.8009 9.30332C26.3529 8.05935 24.103 6.99952 23.801 6.94799C23.1279 6.83342 1.31821 17.7277 0.480739 18.5968L0.000736487 19.095V52.8537C0.000736487 89.5767 -0.061402 87.3085 0.955854 87.7645C1.78512 88.1364 2.11222 87.9982 10.6481 83.6676C15.3041 81.3056 20.1346 78.8654 21.3827 78.2451L23.6518 77.1175L34.2118 82.4888C47.8009 89.4008 47.2995 89.3603 47.3017 83.5467L47.3028 81.099H64.1599H81.0171L81.5273 80.5969L82.0375 80.0948V57.7183V35.3418L82.7681 34.1294C83.1699 33.4626 83.9554 32.1864 84.5136 31.2933L85.5284 29.6697V57.102V84.5344H72.9524C62.4092 84.5344 60.2986 84.5739 59.8954 84.7792C58.7338 85.3704 58.7338 87.1338 59.8954 87.725C60.6219 88.0947 87.4037 88.0902 88.1307 87.7202C89.0698 87.2424 89.0286 89.0181 88.9787 51.1248L88.9321 15.7399L88.5365 14.3658C85.8157 4.91181 77.2226 -0.98785 67.812 0.136909ZM57.5137 4.823C56.1322 5.37954 56.1378 7.2838 57.5225 7.85305C59.2812 8.57621 60.7071 6.4885 59.3599 5.16277C58.8389 4.65003 58.2241 4.537 57.5137 4.823ZM67.3737 10.4789C63.0795 11.8316 60.3505 16.55 61.4494 20.7213C64.0542 30.6069 78.7464 28.9291 78.7464 18.7459C78.7464 12.9069 72.9778 8.71346 67.3737 10.4789ZM21.819 13.4052V15.2791L14.7935 18.8287C10.9294 20.7811 7.5914 22.5704 7.37532 22.8049L6.98259 23.2312V49.414V75.5968L7.48406 76.1492C8.33794 77.0896 8.50376 77.035 15.4926 73.5168L21.819 70.332L21.8185 72.2371L21.818 74.1422L12.755 78.7371C7.77031 81.2644 3.64701 83.332 3.59185 83.332C3.53669 83.332 3.49236 69.2447 3.49306 52.0266L3.49445 20.7213L12.5258 16.1359C17.4931 13.6137 21.6162 11.546 21.6881 11.541C21.76 11.5358 21.819 12.3748 21.819 13.4052ZM34.6482 16.1321L43.7246 20.7241L43.775 22.2257C43.8028 23.0516 43.7611 23.7273 43.6825 23.7273C43.6038 23.7273 39.6538 21.9046 34.9048 19.6769C30.1555 17.4494 26.0539 15.5481 25.7899 15.4519L25.3099 15.2768V13.4042C25.3099 12.3742 25.3689 11.5334 25.4409 11.5358C25.5128 11.5382 29.6561 13.6065 34.6482 16.1321ZM72.4025 14.1181C75.0294 15.4098 76.0399 18.4254 74.7261 21.0518C72.2845 25.9327 64.7574 24.1916 64.7574 18.7459C64.7574 14.8679 68.8676 12.3797 72.4025 14.1181ZM34.6655 23.3851L43.5846 27.5509L43.6975 30.234C43.7598 31.7097 43.811 34.0959 43.8113 35.5366L43.8119 38.1561H39.8758C35.0625 38.1561 35.5399 38.3665 32.9249 35.092C30.2081 31.6899 29.3903 31.1456 26.75 30.9824L25.3099 30.8933V24.973C25.3099 20.3068 25.3562 19.0704 25.5281 19.1362C25.6482 19.1821 29.7598 21.094 34.6655 23.3851ZM21.819 25.1015V30.9417H21.3739C20.8463 30.9417 20.0997 30.5868 19.695 30.1433C19.4761 29.9035 16.4081 22.2082 16.4081 21.8988C16.4081 21.8237 21.513 19.2824 21.6881 19.2704C21.76 19.2654 21.819 21.8894 21.819 25.1015ZM51.2337 21.7949C51.2873 22.0546 51.4729 22.8276 51.6458 23.5126L51.9605 24.7579H49.6316H47.3028V23.0402V21.3225H49.2195H51.1362L51.2337 21.7949ZM14.8258 27.5922C16.8174 32.8123 17.906 34.0277 20.8585 34.3277L21.819 34.4252V44.3842V54.3432L20.1678 52.7898C17.6165 50.3895 15.4177 49.5026 12.0008 49.4959L10.4735 49.493L10.4777 37.1684L10.4819 24.8438L11.7432 24.2077C13.376 23.3843 13.1086 23.0907 14.8258 27.5922ZM56.6705 33.1431C58.3343 35.8183 59.6956 38.0405 59.6956 38.0816C59.6956 38.1226 56.9072 38.1561 53.4992 38.1561H47.3028V33.1708V28.1856L50.4741 28.2324L53.6454 28.2792L56.6705 33.1431ZM27.8843 34.7188C28.1962 34.9058 29.1388 35.9274 29.9789 36.9886C33.5677 41.522 33.4733 41.4756 39.3513 41.5915L43.7052 41.6774L43.7743 49.8129C43.8122 54.2873 43.7935 58.2102 43.7324 58.5303L43.6214 59.1122H35.4371C26.803 59.1122 26.6449 59.0988 25.7899 58.2961L25.3099 57.8456V46.1114V34.3771L26.3136 34.3778C27.0058 34.3782 27.4932 34.484 27.8843 34.7188ZM78.5466 59.3699V77.6635H75.7981H73.0496L64.1472 68.9123C53.4876 58.4341 54.6037 59.2223 50.3137 59.1409L47.3028 59.0839V50.3376V41.5915H54.6098H61.9168L63.8049 44.6293C65.56 47.4536 65.6691 47.6801 65.3561 47.85C59.4371 51.0637 62.6903 58.5969 69.9969 58.5969C77.0989 58.5969 80.5737 51.5539 75.1389 48.1748C74.7095 47.9079 74.3777 47.6477 74.4014 47.5965C74.5439 47.2906 78.4375 41.0762 78.4865 41.0762C78.5195 41.0762 78.5466 49.3084 78.5466 59.3699ZM68.167 51.6376C69.4497 53.6111 70.756 53.5114 72.0747 51.3396C72.5624 50.5365 72.668 50.5382 73.5053 51.3622C75.251 53.0801 73.3297 55.1615 69.9985 55.1615C66.6779 55.1615 64.7445 53.0724 66.4823 51.3622C67.3562 50.5022 67.4376 50.5156 68.167 51.6376ZM15.4355 53.5844C16.4229 54.0393 17.0623 54.5575 19.2212 56.6528L21.819 59.1739V62.8187V66.4637L20.2917 67.2325C19.4518 67.6554 16.8991 68.9449 14.619 70.098L10.4735 72.1945V62.5394V52.8843L12.3604 52.9607C14.0252 53.0282 14.3872 53.1018 15.4355 53.5844ZM34.9536 62.5032L43.8119 62.5624L43.7946 68.0947C43.785 71.1374 43.7262 74.2478 43.6637 75.0069L43.55 76.3869L34.43 71.4129L25.3099 66.4391V64.3016V62.1641L25.7027 62.3041C25.9188 62.381 30.0815 62.4707 34.9536 62.5032ZM52.7629 62.7881C53.0789 62.9235 56.5714 66.2316 60.7421 70.3461L68.1595 77.6635H57.7312H47.3028V70.1056V62.5476H49.752C51.468 62.5476 52.3695 62.6196 52.7629 62.7881ZM34.6346 75.454L43.8119 80.4589V81.8955C43.8119 82.6856 43.763 83.332 43.7033 83.332C43.5823 83.332 39.9669 81.5358 34.5609 78.7897C32.5929 77.7899 29.7064 76.3354 28.1467 75.5571L25.3106 74.1422L25.3103 72.2957C25.3101 71.28 25.3431 70.4491 25.3836 70.4491C25.4241 70.4491 29.587 72.7014 34.6346 75.454ZM52.4269 84.6967C51.1973 85.2113 51.1561 87.0972 52.3611 87.7104C53.138 88.1057 53.7243 88.0323 54.2981 87.4677C55.6319 86.155 54.1581 83.9722 52.4269 84.6967Z"  fill="currentColor"/>
</svg>
