<svg width="86" height="78" viewBox="0 0 86 78" fill="none" xmlns="http://www.w3.org/2000/svg">
<path fill-rule="evenodd" clip-rule="evenodd" d="M8.96399 0.293037C8.29127 0.843328 8.23047 1.20623 8.23047 4.67316V8.01934L4.11523 16.2133L0 24.4073L0.00251953 27.335C0.00520703 30.5955 0.199211 31.7809 1.0058 33.4699C2.25582 36.0869 4.72429 38.1183 7.5166 38.8279L8.23047 39.0093V56.8089V74.6084H7.06762C5.99296 74.6084 5.86547 74.6481 5.38793 75.1302C4.99002 75.5319 4.87109 75.8019 4.87109 76.3042C4.87109 76.8065 4.99002 77.0765 5.38793 77.4782L5.90477 78H43H80.0952L80.6121 77.4782C81.333 76.7504 81.333 75.858 80.6121 75.1302C80.1345 74.6481 80.007 74.6084 78.9324 74.6084H77.7695V56.8089V39.0093L78.4834 38.8279C81.2757 38.1183 83.7442 36.0869 84.9942 33.4699C85.8008 31.7809 85.9948 30.5955 85.9975 27.335L86 24.4073L81.8848 16.2133L77.7695 8.01934V4.67316C77.7695 1.20623 77.7087 0.843328 77.036 0.293037C76.6992 0.0176363 74.6587 0 43 0C11.3413 0 9.30077 0.0176363 8.96399 0.293037ZM74.4102 5.07998V6.7758H43H11.5898V5.07998V3.38417H43H74.4102V5.07998ZM20.7589 10.4642C20.7084 10.6275 19.7207 13.9055 18.5639 17.7487L16.4609 24.7367V27.3418C16.4609 30.1567 16.272 31.1821 15.5114 32.4952C14.942 33.4778 13.755 34.5354 12.6271 35.0652C11.4215 35.6314 9.40759 35.7693 8.09441 35.3755C6.21031 34.8107 4.55346 33.2541 3.84581 31.3841C3.55875 30.6252 3.46855 29.9315 3.4007 27.9604L3.31554 25.4884L7.15883 17.8318L11.002 10.1754L15.9263 10.1713C20.5402 10.1676 20.8449 10.1861 20.7589 10.4642ZM34.4324 10.4642C34.4317 10.6275 34.161 13.3556 33.8304 16.5267C33.4804 19.8866 33.1698 23.9554 33.0861 26.2777C32.9892 28.9662 32.8616 30.5191 32.6938 31.0502C32.148 32.7765 30.9175 34.1757 29.2266 34.9925C28.2298 35.4739 27.9885 35.5198 26.4551 35.5198C24.9677 35.5198 24.66 35.4656 23.7676 35.0454C22.4445 34.4223 21.1456 33.1162 20.5464 31.8069C20.0968 30.8238 20.0701 30.6283 20.0163 27.9304L19.9599 25.0891L22.1998 17.631L24.4395 10.1729L29.4365 10.1701C34.0851 10.1676 34.4336 10.1881 34.4324 10.4642ZM48.1123 10.9729C48.1699 11.4159 48.5171 14.7836 48.8839 18.4564C49.5706 25.3336 49.7075 28.7271 49.3645 30.3817C48.9421 32.4207 47.5669 34.1768 45.6875 35.0772C44.874 35.4669 44.5532 35.5198 43 35.5198C41.4468 35.5198 41.126 35.4669 40.3125 35.0772C38.4331 34.1768 37.0579 32.4207 36.6355 30.3817C36.2925 28.7271 36.4294 25.3336 37.1161 18.4564C37.4829 14.7836 37.8301 11.4159 37.8877 10.9729L37.9925 10.1674H43H48.0075L48.1123 10.9729ZM63.8004 17.6254L66.0403 25.0804L65.9837 27.926C65.9299 30.6286 65.9034 30.8236 65.4536 31.8069C64.8544 33.1162 63.5555 34.4223 62.2324 35.0454C61.34 35.4656 61.0323 35.5198 59.5449 35.5198C58.0115 35.5198 57.7702 35.4739 56.7734 34.9925C55.0825 34.1757 53.852 32.7765 53.3062 31.0502C53.1384 30.5191 53.0108 28.9662 52.9139 26.2777C52.8302 23.9554 52.5196 19.8866 52.1696 16.5267C51.839 13.3556 51.5683 10.6275 51.5676 10.4642C51.5664 10.1881 51.9153 10.1676 56.5635 10.169L61.5605 10.1706L63.8004 17.6254ZM78.8412 17.8318L82.6845 25.4884L82.5993 27.9604C82.5314 29.9315 82.4412 30.6252 82.1542 31.3841C81.4465 33.2541 79.7897 34.8107 77.9056 35.3755C76.5924 35.7693 74.5785 35.6314 73.373 35.0652C72.245 34.5354 71.058 33.4778 70.4886 32.4952C69.7279 31.1818 69.5391 30.1568 69.5391 27.3387V24.7306L67.4346 17.7458C66.2771 13.9042 65.2893 10.6275 65.2396 10.4642C65.1549 10.1862 65.4603 10.1676 70.0737 10.1713L74.998 10.1754L78.8412 17.8318ZM21.9612 38.0232C25.0875 39.5912 28.2211 39.5116 31.4343 37.7826C32.3719 37.2779 34.6016 35.2385 34.6016 34.8854C34.6016 34.803 35.1496 35.3011 35.8193 35.9921C37.2588 37.4773 38.7215 38.3508 40.5663 38.8272C43.0165 39.4599 45.6398 39.1126 47.8541 37.8624C48.4855 37.506 49.4873 36.7003 50.1807 35.9911C50.8505 35.306 51.3984 34.8108 51.3984 34.8904C51.3984 34.9701 51.8808 35.5295 52.4704 36.1336C56.3856 40.145 62.5398 40.1423 66.5351 36.1271L67.8144 34.8415L68.822 35.9438C70.0158 37.2494 71.5154 38.1947 73.1924 38.6985L74.4102 39.0643V56.8362V74.6084H72.7305H71.0508V60.0132C71.0508 49.5978 70.997 45.312 70.8632 45.0476C70.76 44.8439 70.5143 44.5455 70.3173 44.3842C69.9812 44.1093 68.2929 44.0912 43 44.0912C17.7071 44.0912 16.0188 44.1093 15.6827 44.3842C15.4857 44.5455 15.24 44.8439 15.1368 45.0476C14.8714 45.5716 14.8714 69.7288 15.1368 70.2528C15.24 70.4565 15.4857 70.755 15.6827 70.9162C16.0175 71.1899 17.2981 71.2095 35.1475 71.213L54.2539 71.2167V72.9126V74.6084H32.9219H11.5898V56.8362V39.0643L12.8076 38.6985C14.4846 38.1947 15.9842 37.2494 17.178 35.9438L18.1856 34.8415L19.4649 36.1271C20.3634 37.0301 21.1064 37.5943 21.9612 38.0232ZM24.2715 53.2411C21.1315 56.4123 18.5053 59.0069 18.4356 59.0069C18.3657 59.0069 18.3086 56.4123 18.3086 53.2411V47.4753H24.1445H29.9806L24.2715 53.2411ZM38.8483 49.2136C37.9077 50.1695 37.0663 51.1464 36.9785 51.3844C36.5814 52.4605 37.4434 53.5803 38.6691 53.5803C39.3285 53.5803 39.4535 53.4782 42.403 50.5278L45.4545 47.4753H49.8543H54.2539V57.6502V67.8251H36.2812H18.3086V66.0028V64.1805L26.5804 55.8279L34.8522 47.4753H37.7053H40.5584L38.8483 49.2136ZM67.6914 61.0419V74.6084H62.6523H57.6133V68.673V62.7377H58.7645C59.7488 62.7377 59.9793 62.6783 60.3535 62.3281C61.1522 61.5808 61.1522 60.5029 60.3535 59.7556C59.9793 59.4054 59.7488 59.346 58.7645 59.346H57.6133V53.4107V47.4753H62.6523H67.6914V61.0419ZM34.3184 53.911C33.3242 54.523 33.1297 55.573 33.8502 56.4377C34.3941 57.0903 35.0836 57.2483 35.8291 56.8912C37.1962 56.2363 37.1404 54.255 35.7412 53.7626C35.0455 53.5177 34.9392 53.5287 34.3184 53.911ZM0.51684 75.1302C0.118922 75.5319 0 75.8019 0 76.3042C0 77.2342 0.770137 78 1.70555 78C3.21055 78 3.9392 76.1853 2.8684 75.1041C2.16982 74.3988 1.23104 74.4091 0.51684 75.1302ZM83.1316 75.1041C82.0608 76.1853 82.7894 78 84.2944 78C85.2299 78 86 77.2342 86 76.3042C86 75.8019 85.8811 75.5319 85.4832 75.1302C84.769 74.4091 83.8302 74.3988 83.1316 75.1041Z" fill="currentColor"/>
</svg>
